<svg width="150" height="42" viewBox="0 0 150 42" fill="none" xmlns="http://www.w3.org/2000/svg">
<path d="M2.64062 41.3051C11.1122 41.3145 20.5334 41.3421 28.4011 41.3475C34.0831 41.3475 38.6574 36.7225 38.6574 31.058C38.6574 25.3935 34.0831 20.7686 28.4011 20.7686C14.1648 20.7999 4.78715 36.2448 2.64062 41.3051Z" fill="url(#paint0_linear_83_2554)"/>
<path d="M2.57408 0C1.14823 0 0.000362446 1.15211 0.000362446 2.58323V5.1768L0 41.3082C5.14778 33.577 4.59698 31.6493 4.9572 23.6368L5.14778 14.2488V2.58323C5.14747 1.15211 3.99992 0 2.57408 0Z" fill="url(#paint1_linear_83_2554)"/>
<path d="M127.862 28.4544C127.862 29.76 128.061 30.9749 128.459 32.0992C128.857 33.1872 129.418 34.1302 130.141 34.928C130.865 35.6896 131.751 36.3062 132.8 36.7777C133.849 37.2129 135.024 37.4305 136.327 37.4305C137.629 37.4305 138.804 37.2129 139.853 36.7777C140.903 36.3062 141.789 35.6896 142.512 34.928C143.236 34.1302 143.796 33.1872 144.194 32.0992C144.592 30.9749 144.791 29.76 144.791 28.4544C144.791 27.1488 144.592 25.952 144.194 24.864C143.796 23.7397 143.236 22.7968 142.512 22.0351C141.789 21.2373 140.903 20.6207 139.853 20.1855C138.804 19.7141 137.629 19.4783 136.327 19.4783C135.024 19.4783 133.849 19.7141 132.8 20.1855C131.751 20.6207 130.865 21.2373 130.141 22.0351C129.418 22.7968 128.857 23.7397 128.459 24.864C128.061 25.952 127.862 27.1488 127.862 28.4544ZM122.653 28.4544C122.653 26.5685 122.997 24.8096 123.684 23.1776C124.408 21.5455 125.384 20.113 126.614 18.8799C127.844 17.6468 129.291 16.6858 130.955 15.9967C132.619 15.2714 134.409 14.9087 136.327 14.9087C138.244 14.9087 140.034 15.2714 141.698 15.9967C143.362 16.6858 144.809 17.6468 146.039 18.8799C147.269 20.113 148.227 21.5455 148.915 23.1776C149.638 24.8096 150 26.5685 150 28.4544C150 30.3403 149.638 32.1174 148.915 33.7856C148.227 35.4176 147.269 36.8502 146.039 38.0833C144.809 39.2801 143.362 40.2411 141.698 40.9665C140.034 41.6556 138.244 42.0001 136.327 42.0001C134.409 42.0001 132.619 41.6556 130.955 40.9665C129.291 40.2411 127.844 39.2801 126.614 38.0833C125.384 36.8502 124.408 35.4176 123.684 33.7856C122.997 32.1174 122.653 30.3403 122.653 28.4544Z" fill="#1A2333"/>
<path d="M108.028 15.5615H112.912V19.5327H113.02C113.346 18.8437 113.78 18.2271 114.322 17.6831C114.865 17.1028 115.462 16.6132 116.113 16.2143C116.8 15.8154 117.542 15.5071 118.338 15.2895C119.133 15.0356 119.929 14.9087 120.725 14.9087C121.521 14.9087 122.244 15.0175 122.895 15.2351L122.678 20.5119C122.28 20.4031 121.883 20.3125 121.485 20.2399C121.087 20.1674 120.689 20.1311 120.291 20.1311C117.904 20.1311 116.077 20.8021 114.811 22.1439C113.545 23.4858 112.912 25.5712 112.912 28.4V41.3473H108.028V15.5615Z" fill="#1A2333"/>
<path d="M98.6296 15.5616H103.513V41.3474H98.6296V15.5616ZM97.4901 6.31357C97.4901 5.33436 97.8338 4.50023 98.521 3.81115C99.2445 3.08581 100.095 2.72314 101.071 2.72314C102.048 2.72314 102.88 3.08581 103.567 3.81115C104.291 4.50023 104.652 5.33436 104.652 6.31357C104.652 7.29278 104.291 8.14505 103.567 8.87039C102.88 9.55946 102.048 9.904 101.071 9.904C100.095 9.904 99.2445 9.55946 98.521 8.87039C97.8338 8.14505 97.4901 7.29278 97.4901 6.31357Z" fill="#1A2333"/>
<path d="M88.8496 0.220703H93.7329V41.3474H88.8496V0.220703Z" fill="#1A2333"/>
<path d="M58.5554 0.220703H63.4387V19.2608H63.5473C64.4154 17.919 65.6634 16.8672 67.2911 16.1056C68.9189 15.3077 70.6552 14.9088 72.5 14.9088C74.4895 14.9088 76.2801 15.2533 77.8717 15.9424C79.4995 16.6315 80.874 17.5926 81.9954 18.8256C83.1529 20.0224 84.0391 21.455 84.6541 23.1233C85.269 24.7553 85.5765 26.5324 85.5765 28.4545C85.5765 30.3767 85.269 32.1537 84.6541 33.7858C84.0391 35.4178 83.1529 36.8503 81.9954 38.0834C80.874 39.3165 79.4995 40.2775 77.8717 40.9666C76.2801 41.6557 74.4895 42.0002 72.5 42.0002C70.7637 42.0002 69.0636 41.6194 67.3997 40.8578C65.7719 40.0962 64.4878 39.0263 63.5473 37.6482H63.4387V41.3474H58.5554V0.220703ZM71.9032 37.4306C73.2054 37.4306 74.381 37.213 75.43 36.7778C76.479 36.3063 77.3653 35.6898 78.0887 34.9282C78.8122 34.1303 79.3729 33.1873 79.7708 32.0993C80.1687 30.9751 80.3676 29.7601 80.3676 28.4545C80.3676 27.1489 80.1687 25.9521 79.7708 24.8641C79.3729 23.7398 78.8122 22.7969 78.0887 22.0353C77.3653 21.2374 76.479 20.6209 75.43 20.1856C74.381 19.7142 73.2054 19.4784 71.9032 19.4784C70.601 19.4784 69.4253 19.7142 68.3763 20.1856C67.3273 20.6209 66.4411 21.2374 65.7176 22.0353C64.9942 22.7969 64.4335 23.7398 64.0356 24.8641C63.6377 25.9521 63.4387 27.1489 63.4387 28.4545C63.4387 29.7601 63.6377 30.9751 64.0356 32.0993C64.4335 33.1873 64.9942 34.1303 65.7176 34.9282C66.4411 35.6898 67.3273 36.3063 68.3763 36.7778C69.4253 37.213 70.601 37.4306 71.9032 37.4306Z" fill="#1A2333"/>
<defs>
<linearGradient id="paint0_linear_83_2554" x1="18.9481" y1="34.6425" x2="2.74146" y2="41.2789" gradientUnits="userSpaceOnUse">
<stop stop-color="#F26835"/>
<stop offset="1" stop-color="#DC450C"/>
</linearGradient>
<linearGradient id="paint1_linear_83_2554" x1="2.57655" y1="20.1149" x2="2.57655" y2="41.4068" gradientUnits="userSpaceOnUse">
<stop stop-color="#F26835"/>
<stop offset="1" stop-color="#DC450C"/>
</linearGradient>
</defs>
</svg>
