<svg width="1514" height="366" viewBox="0 0 1514 366" fill="none" xmlns="http://www.w3.org/2000/svg">
<mask id="mask0_856_2434" style="mask-type:alpha" maskUnits="userSpaceOnUse" x="0" y="0" width="1514" height="366">
<rect width="1514" height="366" fill="#D9D9D9"/>
</mask>
<g mask="url(#mask0_856_2434)">
<path d="M1142.42 214.864C1232.26 185.651 1238.64 311.214 1310.64 328.44C1566.44 389.634 1590.7 -464.243 1327.5 -592.974C1078.5 -714.765 822.028 -14.5154 822.028 -14.5154C822.028 -14.5154 772.465 171.007 822.028 246.041C866.757 313.758 925.088 310.478 989.048 286.684C1039.58 267.885 1091.48 231.427 1142.42 214.864Z" fill="#FFF830"/>
<path d="M877.034 174.045C1009.28 131.024 1018.67 315.937 1124.66 341.305C1501.19 431.425 1536.9 -826.058 1149.48 -1015.64C782.943 -1194.99 405.425 -163.756 405.425 -163.756C405.425 -163.756 332.469 109.458 405.425 219.959C471.266 319.684 557.127 314.853 651.276 279.812C725.659 252.128 802.055 198.437 877.034 174.045Z" fill="#FF8000"/>
<ellipse cx="446.5" cy="618.453" rx="446.5" ry="618.453" transform="matrix(1 0 0 -1 340 252.24)" fill="#FF4880"/>
<path d="M54.0944 -348.06C4.06366 -555.49 -17.8262 -713.56 54.0944 -908.197C194.314 -1287.67 696.482 -1284.67 840.832 -908.197C954.923 -610.637 788.364 -371.478 667.13 -79.4093C613.637 49.4646 599.765 156.859 506.009 228.868C296.208 390.003 130.217 -32.4498 54.0944 -348.06Z" fill="#00B0FF"/>
<ellipse cx="356" cy="492.96" rx="356" ry="492.96" transform="matrix(1 0 0 -1 -112 84.2402)" fill="#00FFAE"/>
</g>
</svg>
