<?xml version="1.0" encoding="UTF-8" standalone="no"?>
<svg width="161px" height="38px" viewBox="0 0 161 38" version="1.1" xmlns="http://www.w3.org/2000/svg" xmlns:xlink="http://www.w3.org/1999/xlink">
    <!-- Generator: sketchtool 47.1 (45422) - http://www.bohemiancoding.com/sketch -->
    <title>16998B7F-315F-41F4-BCC0-5044A8F11F12</title>
    <desc>Created with sketchtool.</desc>
    <defs></defs>
    <g id="Cyberforum_Navigation-mobil" stroke="none" stroke-width="1" fill="none" fill-rule="evenodd">
        <g id="Navigation-mobil" transform="translate(-17.000000, -19.000000)" fill="#FFFFFF">
            <g id="cyberforum-logo-horizontal-weiss-ou" transform="translate(17.000000, 19.000000)">
                <g id="Ebene_1">
                    <g id="Group" fill-rule="nonzero">
                        <path d="M14.012963,0.618072289 C14.012963,0.618072289 12.315812,2.49518072 10.8938746,5.37951807 C10.8938746,5.37951807 9.08205128,5.8373494 7.40783476,5.8373494 C5.73361823,5.8373494 5.94002849,5.28795181 6.1005698,5.10481928 C9.60954416,1.67108434 14.012963,0.618072289 14.012963,0.618072289 L14.012963,0.618072289 Z" id="Shape"></path>
                        <path d="M10.9397436,5.37951807 C10.9397436,5.37951807 10.618661,5.92891566 10.3663818,6.59277108 C10.3663818,6.59277108 12.1094017,6.31807229 14.3340456,5.65421687 C17.0632479,4.85301205 21.8794872,2.93012048 23.4619658,0.434939759 C23.4849003,0.412048193 22.9574074,0.274698795 22.3152422,0.160240964 C22.2923077,0.160240964 21.4666667,1.25903614 19.0356125,2.56385542 C17.2696581,3.54819277 14.7009972,4.60120482 10.9397436,5.37951807 L10.9397436,5.37951807 Z" id="Shape"></path>
                        <path d="M10.2975783,6.66144578 C10.2975783,6.66144578 10.182906,6.91325301 9.9994302,7.41686747 C9.747151,8.08072289 9.35726496,9.2939759 9.08205128,10.6674699 C9.08205128,10.6674699 8.34814815,10.8048193 7.01794872,10.8048193 C4.93091168,10.8048193 4.24287749,10.4843373 4.24287749,10.4843373 C4.24287749,10.4843373 4.38048433,10.3927711 4.79330484,10.0493976 C4.79330484,10.0493976 4.60982906,10.1638554 4.44928775,10.2783133 C4.31168091,10.3698795 4.19700855,10.4614458 4.19700855,10.4614458 C4.19700855,10.4614458 3.11908832,10.186747 3.11908832,9.15662651 C3.11908832,8.67590361 3.18789174,8.69879518 3.34843305,8.44698795 C3.48603989,8.19518072 4.01353276,7.3939759 4.97678063,6.29518072 C4.97678063,6.29518072 5.13732194,6.89036145 7.47663818,6.89036145 C9.03618234,6.89036145 10.2975783,6.66144578 10.2975783,6.66144578 L10.2975783,6.66144578 Z" id="Shape"></path>
                        <path d="M9.08205128,10.713253 C9.08205128,10.713253 8.96737892,11.2855422 8.87564103,11.8349398 C8.87564103,11.8349398 12.8433048,11.5144578 17.797151,9.72891566 C24.8150997,7.21084337 28.5763533,4.14337349 28.5763533,2.49518072 C28.5763533,2.47228916 28.2323362,2.26626506 27.6131054,2.01445783 C27.6131054,2.01445783 27.7736467,3.5253012 23.4619658,6.04337349 C21.0538462,7.4626506 15.664245,9.88915663 9.08205128,10.713253 L9.08205128,10.713253 Z" id="Shape"></path>
                        <path d="M8.85270655,11.8578313 C8.85270655,11.8578313 8.46282051,14.2156627 8.60042735,16.4590361 C8.60042735,16.4590361 7.38490028,16.573494 6.39871795,16.573494 C5.5960114,16.573494 3.8988604,16.5048193 2.66039886,16.0012048 C2.63746439,16.0012048 2.68333333,16.0240964 2.66039886,16.0012048 C2.66039886,16.0012048 3.18789174,15.4289157 3.83005698,14.8795181 C4.60982906,14.2385542 5.5042735,13.5975904 5.5042735,13.5975904 C5.5042735,13.5975904 4.58689459,14.1927711 3.76125356,14.8108434 C3.0502849,15.3373494 2.4539886,15.9096386 2.43105413,15.9096386 C1.72008547,15.5662651 1.21552707,15.0626506 1.21552707,14.3072289 C1.21552707,12.9566265 3.16495726,11.3313253 3.16495726,11.3313253 C3.16495726,11.3313253 3.8988604,11.9951807 6.62806268,11.9951807 C7.93532764,11.9951807 8.85270655,11.8578313 8.85270655,11.8578313 L8.85270655,11.8578313 Z" id="Shape"></path>
                        <path d="M3.11908832,11.2626506 C3.11908832,11.2626506 2.47692308,10.8963855 2.47692308,9.91204819 C2.47692308,9.91204819 1.49074074,11.7204819 1.05498575,13.4144578 C1.03205128,13.3915663 1.51367521,12.5216867 3.11908832,11.2626506 L3.11908832,11.2626506 Z" id="Shape"></path>
                        <path d="M1.55954416,16.8710843 C1.55954416,16.8710843 0.642165242,16.3445783 0.504558405,15.6807229 C0.504558405,15.6807229 0.229344729,17.260241 0.229344729,19.1831325 C0.206410256,19.1831325 0.366951567,18.153012 1.55954416,16.8710843 L1.55954416,16.8710843 Z" id="Shape"></path>
                        <path d="M1.83475783,17.0084337 C2.77507123,17.3746988 3.57777778,17.6951807 6.352849,17.6951807 C7.84358974,17.6951807 8.66923077,17.5807229 8.66923077,17.5807229 C8.66923077,17.5807229 8.87564103,20.0301205 9.51780627,21.8614458 C9.51780627,21.8614458 8.57749288,21.9301205 7.52250712,21.9301205 C6.71980057,21.9301205 5.22905983,21.9072289 3.8988604,21.5638554 C3.87592593,21.5638554 4.58689459,20.8313253 5.41253561,20.1445783 C6.19230769,19.5036145 7.13262108,18.9313253 7.13262108,18.9313253 C7.13262108,18.9313253 6.16937322,19.4349398 5.34373219,20.053012 C3.8988604,21.1289157 3.6465812,21.4493976 3.62364672,21.4493976 C2.22464387,21.060241 1.1008547,20.373494 1.1008547,18.9771084 C1.1008547,17.9927711 1.81182336,17.0084337 1.83475783,17.0084337 L1.83475783,17.0084337 Z" id="Shape"></path>
                        <path d="M8.6462963,16.4819277 C8.6462963,16.4819277 8.66923077,16.9626506 8.69216524,17.5578313 C8.69216524,17.5578313 10.9626781,17.3975904 14.4945869,16.573494 C18.5081197,15.6349398 21.3290598,14.5590361 24.6545584,12.9795181 C31.374359,9.79759036 33.0027066,6.70722892 33.0027066,6.18072289 C33.0027066,6.13493976 32.7504274,5.81445783 32.1541311,5.31084337 C32.1311966,5.28795181 31.7183761,8.30963855 24.5169516,11.8807229 C19.5860399,14.3301205 13.3478632,16.1156627 8.6462963,16.4819277 L8.6462963,16.4819277 Z" id="Shape"></path>
                        <path d="M9.56367521,21.9072289 C9.56367521,21.9072289 9.747151,22.5710843 9.95356125,23.0975904 C9.95356125,23.0975904 12.8203704,22.8686747 16.9027066,21.8614458 C20.2282051,21.0373494 23.9665242,19.7325301 27.2920228,18.1301205 C31.6495726,16.0012048 35.2502849,13.3686747 36.1676638,10.7590361 C36.1676638,10.7590361 35.9383191,10.2783133 35.5254986,9.5 C35.5254986,9.5 35.3878917,9.82048193 35.0897436,10.3698795 C34.722792,11.0337349 33.2320513,14.2614458 25.0444444,17.8325301 C20.1135328,19.9843373 14.4945869,21.5638554 9.56367521,21.9072289 L9.56367521,21.9072289 Z" id="Shape"></path>
                        <path d="M0.344017094,20.7855422 C0.344017094,20.7855422 0.527492877,23.3722892 1.3531339,25.2493976 C1.3531339,25.2493976 1.37606838,24.0590361 2.63746439,22.5939759 C2.66039886,22.5710843 0.848575499,22.113253 0.344017094,20.7855422 L0.344017094,20.7855422 Z" id="Shape"></path>
                        <path d="M11.9488604,27.286747 C11.9488604,27.286747 10.7562678,25.4783133 9.97649573,23.1662651 C9.97649573,23.1433735 8.3022792,23.2578313 7.43076923,23.2578313 C6.53632479,23.2578313 4.58689459,23.2349398 3.07321937,22.7313253 C3.07321937,22.7313253 2.38518519,23.6240964 2.38518519,24.5626506 C2.38518519,26.0963855 3.92179487,26.8746988 5.87122507,27.2180723 C5.89415954,27.2180723 6.39871795,26.6457831 7.01794872,26.0963855 C7.72891738,25.4554217 8.48575499,24.9289157 8.48575499,24.9289157 C8.48575499,24.9289157 7.75185185,25.5240964 7.10968661,26.1421687 C6.55925926,26.6686747 6.12350427,27.2409639 6.16937322,27.2409639 C7.01794872,27.3783133 7.93532764,27.4240964 8.82977208,27.4240964 C10.6645299,27.446988 11.9488604,27.286747 11.9488604,27.286747 L11.9488604,27.286747 Z" id="Shape"></path>
                        <path d="M12.7286325,28.4313253 C12.7286325,28.4313253 12.3846154,27.973494 11.9947293,27.286747 C11.9947293,27.286747 15.0908832,27.0349398 18.7603989,26.0048193 C26.4893162,23.8759036 30.7092593,21.4493976 33.5301994,19.526506 C36.1447293,17.7409639 37.5666667,15.6120482 37.5666667,15.1313253 C37.5666667,15.1313253 37.727208,15.5891566 37.9565527,17.0084337 C37.9565527,17.0084337 37.3143875,18.2674699 34.4705128,20.3506024 C31.7183761,22.3650602 26.4663818,25.1349398 19.3566952,27.0807229 C17.1779202,27.6759036 15.4119658,27.973494 12.7286325,28.4313253 L12.7286325,28.4313253 Z" id="Shape"></path>
                        <path d="M15.8018519,32.0024096 C15.8018519,32.0024096 13.8753561,30.1939759 12.7286325,28.4542169 C12.7286325,28.4542169 10.4581197,28.7289157 8.57749288,28.7289157 C6.352849,28.7289157 5.45840456,28.5 5.45840456,28.5 C5.45840456,28.5 5.29786325,28.8891566 5.29786325,29.3698795 C5.29786325,30.9951807 7.01794872,32.3 11.7195157,32.3 C12.0176638,32.3 12.2928775,32.3 12.5680912,32.2771084 C12.5910256,32.2771084 12.7974359,32.0710843 13.0497151,31.8650602 C13.3249288,31.6590361 13.6460114,31.453012 13.6460114,31.453012 C13.6460114,31.453012 13.3707977,31.7048193 13.1185185,31.9108434 C12.9350427,32.0939759 12.751567,32.2542169 12.7745014,32.2542169 C14.5175214,32.2313253 15.8018519,32.0024096 15.8018519,32.0024096 L15.8018519,32.0024096 Z" id="Shape"></path>
                        <path d="M4.90797721,28.3855422 C4.90797721,28.3855422 3.0502849,28.0650602 2.13290598,27.1722892 C2.13290598,27.1722892 3.16495726,29.2554217 4.35754986,30.6746988 C4.35754986,30.6746988 4.10527066,29.5987952 4.90797721,28.3855422 L4.90797721,28.3855422 Z" id="Shape"></path>
                        <path d="M15.8477208,32.0253012 C15.8477208,32.0253012 16.3752137,32.4831325 16.9485755,32.9638554 C16.9485755,32.9638554 19.1732194,32.6433735 22.2693732,31.7506024 C26.7874644,30.4457831 33.5760684,27.7903614 37.3602564,23.9674699 C37.3831909,23.9445783 37.8648148,22.4108434 37.8648148,21.586747 C37.8648148,21.586747 36.6034188,24.0361446 31.8789174,26.6686747 C27.7965812,28.9349398 22.2923077,31.086747 15.8477208,32.0253012 L15.8477208,32.0253012 Z" id="Shape"></path>
                        <path d="M11.3525641,33.4903614 C7.47663818,33.4903614 6.14643875,32.5746988 6.14643875,32.5746988 C6.14643875,32.5746988 7.86652422,34.4289157 10.9168091,35.9168675 C10.9168091,35.9168675 10.6415954,35.5506024 10.6415954,35.0927711 C10.6645299,34.2457831 11.3525641,33.4903614 11.3525641,33.4903614 L11.3525641,33.4903614 Z" id="Shape"></path>
                        <path d="M11.9488604,33.4674699 C12.6598291,33.4674699 14.838604,33.4216867 16.97151,32.9638554 C16.97151,32.9638554 18.0723647,34.039759 20.8703704,35.5506024 C20.8703704,35.5506024 18.3705128,36.1228916 16.0082621,36.1228916 C14.7468661,36.1228916 11.7195157,35.9626506 11.7195157,34.2228916 C11.7195157,33.8108434 11.9259259,33.4674699 11.9488604,33.4674699 L11.9488604,33.4674699 Z" id="Shape"></path>
                        <path d="M19.1961538,37.7939759 C16.3064103,37.7939759 14.5175214,37.2216867 14.5175214,37.2216867 C14.5175214,37.2216867 17.4760684,37.5650602 22.4757835,36.3060241 C22.4757835,36.3060241 24.2188034,37.0385542 24.5628205,37.0385542 C24.5628205,37.0385542 22.7968661,37.7939759 19.1961538,37.7939759 L19.1961538,37.7939759 Z" id="Shape"></path>
                        <path d="M20.9391738,35.573494 C20.9391738,35.573494 21.627208,35.8939759 22.4757835,36.2831325 C22.4757835,36.2831325 28.2782051,34.886747 32.3376068,32.4144578 C32.4064103,32.3686747 34.5622507,30.1024096 35.2961538,28.6831325 C35.2961538,28.6831325 34.4934473,30.0108434 31.7871795,31.5674699 C30.112963,32.5060241 27.980057,33.513253 25.9618234,34.2457831 C23.9206553,34.9554217 21.9941595,35.3445783 20.9391738,35.573494 L20.9391738,35.573494 Z" id="Shape"></path>
                    </g>
                    <path d="M58.7581197,24.9289157 L57.9783476,22.3421687 C56.3958689,23.0060241 55.2720798,23.2807229 54.3776353,23.2807229 C52.6346154,23.2807229 52.1071225,22.4337349 52.1071225,21.6096386 L52.1071225,14.2156627 C52.1071225,12.9795181 53.0703704,12.1325301 54.5152422,12.1325301 C55.2950142,12.1325301 56.5105413,12.4987952 57.4279202,13.0939759 L58.482906,10.5072289 C56.8545584,9.6373494 55.47849,9.4313253 54.0565527,9.4313253 C51.3961538,9.4313253 49.0568376,10.9650602 49.0568376,13.9409639 L49.0568376,21.746988 C49.0568376,24.8373494 51.5566952,25.8674699 54.0565527,25.8674699 C54.9509972,25.8903614 56.9004274,25.6843373 58.7581197,24.9289157 L58.7581197,24.9289157 Z" id="Shape" fill-rule="nonzero"></path>
                    <polygon id="Shape" fill-rule="nonzero" points="70.0877493 14.146988 66.968661 14.146988 64.6752137 22.8 64.6752137 20.2590361 62.7257835 14.146988 59.3314815 14.146988 63.1844729 25.6385542 63.5514245 25.6385542 62.2900285 29.873494 65.1339031 29.873494"></polygon>
                    <path d="M81.1880342,17.3975904 C81.2109687,14.2614458 78.4358974,13.826506 76.9680912,13.826506 C76.5323362,13.826506 75.6837607,13.9180723 74.8581197,14.2385542 L74.8581197,11.2168675 L74.8581197,8.46987952 L71.8537037,8.46987952 L71.8537037,25.3409639 C74.0095442,25.7759036 75.2021368,25.8445783 76.5782051,25.8445783 C79.1239316,25.8445783 81.1650997,24.8373494 81.1880342,22.0445783 L81.1880342,17.3975904 L81.1880342,17.3975904 Z M78.1377493,17.6722892 L78.1377493,22.113253 C78.1377493,23.0975904 76.7387464,23.7156627 74.8581197,23.0289157 L74.8581197,17.0542169 C75.9360399,16.3445783 78.1377493,15.8638554 78.1377493,17.6722892 L78.1377493,17.6722892 Z" id="Shape"></path>
                    <path d="M92.2883191,18.0614458 C92.2883191,15.8638554 91.4856125,13.8722892 87.7931624,13.8722892 C85.1098291,13.8722892 83.4126781,15.2686747 83.4126781,17.9698795 L83.4126781,22.0903614 C83.4126781,25.0891566 85.591453,25.8903614 88.114245,25.8903614 C89.2150997,25.8903614 90.682906,25.6614458 92.1507123,24.9975904 L91.3938746,22.4337349 C90.3159544,23.0060241 86.3941595,24.3566265 86.3941595,21.5180723 L86.3941595,20.7168675 L92.2883191,20.7168675 L92.2883191,18.0614458 L92.2883191,18.0614458 Z M89.3297721,17.6493976 L89.3297721,18.0843373 L86.3941595,18.0843373 L86.3712251,17.5807229 C86.3253561,16.7795181 86.8757835,16.2987952 87.9307692,16.2987952 C88.985755,16.2987952 89.3297721,16.8710843 89.3297721,17.6493976 L89.3297721,17.6493976 Z" id="Shape"></path>
                    <path d="M101.209829,14.2843373 C99.4897436,13.6204819 98.0907407,13.7349398 97.0586895,14.7879518 L96.5541311,14.1240964 L94.8799145,14.1240964 L94.8569801,25.6385542 L97.861396,25.6385542 L97.861396,17.1686747 C98.3659544,16.6192771 99.3062678,16.5506024 100.567664,17.1457831 L101.209829,14.2843373 L101.209829,14.2843373 Z" id="Shape" fill-rule="nonzero"></path>
                    <polygon id="Shape" fill-rule="nonzero" points="113.732051 9.68313253 104.076638 9.68313253 104.076638 25.6156627 107.05812 25.6156627 107.05812 18.6337349 112.264245 18.6337349 112.264245 16.0698795 107.05812 16.0698795 107.05812 12.7506024 106.461823 12.2927711 113.319231 12.2927711"></polygon>
                    <path d="M123.708547,21.9987952 L123.708547,17.7180723 C123.708547,14.9024096 121.483903,13.8722892 118.938177,13.8722892 C116.369516,13.8722892 114.190741,14.9253012 114.190741,17.7409639 L114.190741,21.9987952 C114.190741,24.8144578 116.369516,25.8903614 118.938177,25.8903614 C121.483903,25.8903614 123.708547,24.8144578 123.708547,21.9987952 L123.708547,21.9987952 Z M120.681197,21.8614458 C120.681197,22.6855422 119.924359,23.2578313 118.938177,23.2578313 C117.951994,23.2578313 117.218091,22.6626506 117.218091,21.8614458 L117.218091,17.9927711 C117.218091,17.1686747 117.951994,16.573494 118.938177,16.573494 C119.924359,16.573494 120.681197,17.1915663 120.681197,17.9927711 L120.681197,21.8614458 L120.681197,21.8614458 Z" id="Shape"></path>
                    <path d="M132.377778,14.2843373 C130.657692,13.6204819 129.258689,13.7349398 128.226638,14.7879518 L127.72208,14.1240964 L126.047863,14.1240964 L126.024929,25.6385542 L129.029345,25.6385542 L129.029345,17.1686747 C129.533903,16.6192771 130.474217,16.5506024 131.735613,17.1457831 L132.377778,14.2843373 L132.377778,14.2843373 Z" id="Shape" fill-rule="nonzero"></path>
                    <path d="M143.36339,25.6385542 L143.36339,14.1240964 L140.358974,14.1240964 L140.358974,22.8915663 C138.937037,23.5554217 137.262821,23.6698795 137.262821,22.1590361 L137.285755,14.1012048 L134.258405,14.1240964 L134.258405,22.2048193 C134.258405,25.0662651 136.116097,25.8674699 138.180199,25.8674699 C138.868234,25.8674699 140.037892,25.7301205 140.955271,25.2036145 L141.666239,25.6156627 L143.36339,25.6156627 L143.36339,25.6385542 Z" id="Shape" fill-rule="nonzero"></path>
                    <path d="M161,17.6036145 C161,14.673494 159.211111,13.826506 157.147009,13.826506 C155.954416,13.826506 154.69302,14.3987952 154.096724,14.9481928 C153.385755,14.1240964 152.2849,13.826506 151.092308,13.826506 C150.381339,13.826506 149.188746,14.1240964 148.523647,14.6277108 L147.835613,14.146988 L145.817379,14.146988 L145.817379,25.6385542 L148.821795,25.6385542 L148.821795,17.260241 C149.25755,16.8710843 149.899715,16.5277108 150.679487,16.5277108 C151.252849,16.5277108 151.895014,16.7108434 151.895014,17.7409639 L151.87208,25.6156627 L154.876496,25.6156627 L154.876496,17.2144578 C155.312251,16.8253012 155.97735,16.5048193 156.757123,16.5048193 C157.30755,16.5048193 157.949715,16.6879518 157.949715,17.7180723 L157.97265,25.5927711 L161,25.5927711 L161,17.6036145 L161,17.6036145 Z" id="Shape" fill-rule="nonzero"></path>
                </g>
            </g>
        </g>
    </g>
</svg>