<svg width="169" height="36" viewBox="0 0 169 36" fill="none" xmlns="http://www.w3.org/2000/svg">
<path fill-rule="evenodd" clip-rule="evenodd" d="M35.6679 13.9583V0H31.0846L35.6679 13.9583ZM28.5394 0H21.6856L33.1086 13.9153L28.5394 0ZM33.1086 21.7526L21.6856 35.6679H28.5394L33.1086 21.7526ZM31.0846 35.6679L35.6679 21.7096V35.6679H31.0846ZM4.82151 0H18.557L30.8208 14.9396L4.82151 0ZM4.82152 35.6679L30.8208 20.7283L18.557 35.6679H4.82152ZM0 0.0184463V35.6495L31.0043 17.834L0 0.0184463Z" fill="black"/>
<path fill-rule="evenodd" clip-rule="evenodd" d="M50.4385 3.6967V4.48885H48.6382V6.55325H50.4385V17.4033H53.2951V6.55325H55.8396V4.48885H53.2951V3.79272C53.2951 2.44847 53.6071 2.18442 55.0234 2.18442H55.8396V0H54.7113C51.5667 0 50.4385 0.696132 50.4385 3.6967ZM56.8536 0H59.7101V2.88055H56.8536V0ZM56.8536 4.48885H59.7101V17.4033H56.8536V4.48885ZM81.9723 4.48885V1.08021H84.8288V4.48885H87.4213V6.55325H84.8288V13.5866C84.8288 14.9068 85.1409 15.2189 86.3651 15.2189H87.3973V17.4033H85.2849C82.5244 17.4033 81.9723 16.6592 81.9723 14.0187V6.55325H80.0519V4.48885H81.9723ZM79.783 8.01752H77.0945C76.7824 6.8413 75.7022 6.38521 74.2619 6.38521C73.0137 6.38521 71.8615 6.93732 71.8615 7.80148C71.8615 8.66565 72.4616 9.12174 73.5898 9.33778L75.4142 9.69785C78.0307 10.2019 80.023 11.0181 80.023 13.5386C80.023 16.2271 77.4786 17.7154 74.55 17.7154C71.3814 17.7154 69.269 15.891 68.9569 13.4666H71.7415C72.0055 14.8108 72.9417 15.555 74.646 15.555C76.1583 15.555 77.2385 14.9308 77.2385 13.8746C77.2385 12.8184 76.2783 12.3624 75.0061 12.0983L73.0617 11.7142C70.8773 11.2581 69.173 10.322 69.173 7.94551C69.173 5.66508 71.6454 4.2008 74.43 4.2008C76.9505 4.2008 79.2549 5.42503 79.783 8.01752ZM69.0222 7.39341V4.51286C68.8062 4.48885 68.4941 4.46485 68.2781 4.46485C66.7178 4.48885 65.4695 5.35302 64.7734 6.79329V4.48885H61.9648V17.4033H64.8214V10.634C64.8214 8.04153 65.8536 7.32139 67.6539 7.32139C68.086 7.32139 68.5421 7.3454 69.0222 7.39341ZM152.888 28.8226V35.6879H150.031V22.7735H152.888V24.5738C153.632 23.2296 154.904 22.4854 156.633 22.4854C158.649 22.4854 159.801 23.3256 160.401 24.7659C161.529 23.1336 162.994 22.4854 164.602 22.4854C167.675 22.4854 168.827 24.5018 168.827 27.5744V35.6879H165.97V28.2705C165.97 26.5182 165.802 24.8139 163.69 24.8139C161.577 24.8139 160.857 26.4942 160.857 28.8226V35.6879H158.001V28.2705C158.001 26.5182 157.833 24.8139 155.72 24.8139C153.608 24.8139 152.888 26.4942 152.888 28.8226ZM144.919 33.9116V35.6879H147.776V22.7735H144.919V29.6628C144.919 31.9912 144.151 33.6716 142.015 33.6716C139.878 33.6716 139.638 31.9672 139.638 30.2149V22.7735H136.782V30.911C136.782 33.9836 138.03 36 141.103 36C142.855 36 144.175 35.2559 144.919 33.9116ZM130.16 22.7735V19.3648H133.017V22.7735H135.609V24.8379H133.017V31.8712C133.017 33.1915 133.329 33.5035 134.553 33.5035H135.585V35.6879H133.473C130.712 35.6879 130.16 34.9438 130.16 32.3033V24.8379H128.24V22.7735H130.16ZM119.433 24.5738V22.7735H116.577V35.6879H119.433V28.8226C119.433 26.4942 120.225 24.8139 122.434 24.8139C124.642 24.8139 124.882 26.5182 124.882 28.2705V35.6879H127.739V27.5744C127.739 24.5018 126.467 22.4854 123.346 22.4854C121.522 22.4854 120.177 23.2296 119.433 24.5738ZM115.185 30.0469H105.559C105.751 32.4473 107.431 33.6235 109.064 33.6235C110.576 33.6235 111.728 33.0474 112.232 31.8232H115.041C114.465 33.8876 112.496 36 109.184 36C105.031 36 102.654 32.8554 102.654 29.1347C102.654 25.246 105.319 22.4854 108.992 22.4854C112.952 22.4854 115.449 25.726 115.185 30.0469ZM108.992 24.7178C107.647 24.7178 105.823 25.534 105.559 27.9585H112.28C112.208 25.9421 110.672 24.7178 108.992 24.7178ZM85.5578 35.6879V28.8226C85.5578 26.4942 86.2779 24.8139 88.3903 24.8139C90.5027 24.8139 90.6708 26.5182 90.6708 28.2705V35.6879H93.5273V28.8226C93.5273 26.4942 94.2475 24.8139 96.3599 24.8139C98.4723 24.8139 98.6403 26.5182 98.6403 28.2705V35.6879H101.497V27.5744C101.497 24.5018 100.345 22.4854 97.272 22.4854C95.6637 22.4854 94.1994 23.1336 93.0712 24.7659C92.4711 23.3256 91.3189 22.4854 89.3025 22.4854C87.5742 22.4854 86.3019 23.2296 85.5578 24.5738V22.7735H82.7012V35.6879H85.5578ZM71.544 29.2547C71.544 32.2313 73.1283 33.6716 74.9526 33.6716C76.777 33.6716 78.3613 32.2313 78.3613 29.2547C78.3613 26.2782 76.777 24.8139 74.9526 24.8139C73.1283 24.8139 71.544 26.2782 71.544 29.2547ZM74.9526 22.4854C78.0972 22.4854 81.3139 24.5978 81.3139 29.2547C81.3139 33.9356 78.0972 36 74.9526 36C71.808 36 68.5914 33.9356 68.5914 29.2547C68.5914 24.5978 71.808 22.4854 74.9526 22.4854ZM51.4947 35.6879V28.8226C51.4947 26.4942 52.2149 24.8139 54.3273 24.8139C56.4397 24.8139 56.6077 26.5182 56.6077 28.2705V35.6879H59.4642V28.8226C59.4642 26.4942 60.1844 24.8139 62.2968 24.8139C64.4092 24.8139 64.5772 26.5182 64.5772 28.2705V35.6879H67.4338V27.5744C67.4338 24.5018 66.2816 22.4854 63.209 22.4854C61.6007 22.4854 60.1364 23.1336 59.0082 24.7659C58.408 23.3256 57.2558 22.4854 55.2394 22.4854C53.5111 22.4854 52.2389 23.2296 51.4947 24.5738V22.7735H48.6382V35.6879H51.4947Z" fill="black"/>
</svg>
