<svg xmlns="http://www.w3.org/2000/svg" fill-rule="evenodd" stroke-linejoin="round" stroke-miterlimit="1.414" clip-rule="evenodd" viewBox="0 0 2000 414"><path d="M406.12 44.63h-44.588v324.255h44.588v44.588H0V.042h406.12V44.63zm-89.176 287.498V80.004h-88.086v39.999c-6.292-13.483-15.954-24.044-28.988-31.684-13.033-7.64-28.388-11.46-46.065-11.46-20.074 0-38.201 5.168-54.38 15.504-16.179 10.337-28.912 25.243-38.2 44.718-9.288 19.474-13.932 42.395-13.932 68.761 0 26.366 4.644 49.361 13.932 68.986 9.288 19.624 22.021 34.605 38.2 44.941 16.179 10.337 34.306 15.505 54.38 15.505 17.677 0 33.032-3.82 46.065-11.46 13.034-7.64 22.696-18.201 28.988-31.684v39.998h88.086zM183.017 154.159c-13.782 0-24.942 4.569-33.481 13.707-8.539 9.138-12.809 21.797-12.809 37.976 0 16.478 4.27 29.287 12.809 38.425 8.539 9.138 19.699 13.707 33.481 13.707 13.183 0 24.119-4.644 32.808-13.932s13.033-22.021 13.033-38.2c0-15.88-4.344-28.463-13.033-37.751-8.689-9.288-19.625-13.932-32.808-13.932zM1528.04 44.63h44.588v324.255h-44.588v44.588H450.71V.042h1077.33V44.63zM650.614 232.357c-2.097 8.69-5.917 15.356-11.46 20-5.543 4.644-12.659 6.966-21.347 6.966-10.786 0-19.55-4.495-26.291-13.483-6.742-8.988-10.112-22.321-10.112-39.998 0-17.378 3.37-30.636 10.112-39.774 6.741-9.138 15.505-13.707 26.291-13.707 8.688 0 15.804 2.322 21.347 6.966 5.543 4.644 9.363 11.31 11.46 19.999h93.479c-5.692-32.059-19.624-57.151-41.796-75.278-22.171-18.126-49.585-27.189-82.243-27.189-24.868 0-47.039 5.168-66.514 15.504-19.475 10.337-34.605 25.243-45.392 44.718-10.786 19.474-16.179 42.395-16.179 68.761 0 26.366 5.393 49.361 16.179 68.986 10.787 19.624 25.842 34.605 45.167 44.941 19.325 10.337 41.571 15.505 66.739 15.505 32.658 0 60.072-9.138 82.243-27.414 22.171-18.276 36.103-43.443 41.796-75.503h-93.479zm281.786 9.438c-2.098 6.892-5.993 12.434-11.685 16.629-5.693 4.194-12.883 6.292-21.572 6.292-23.37 0-35.804-14.232-37.302-42.695h166.734c1.499-7.491 2.248-14.382 2.248-20.673 0-24.868-5.319-46.74-15.955-65.616-10.636-18.875-25.542-33.406-44.717-43.593-19.175-10.187-41.346-15.28-66.514-15.28-24.868 0-47.039 5.168-66.514 15.504-19.475 10.337-34.605 25.243-45.391 44.718-10.786 19.474-16.179 42.395-16.179 68.761 0 26.366 5.393 49.361 16.179 68.986 10.786 19.624 25.841 34.605 45.166 44.941 19.325 10.337 41.572 15.505 66.739 15.505 20.673 0 39.699-4.044 57.076-12.134 17.378-8.089 31.759-19.25 43.144-33.482 11.386-14.231 18.726-30.185 22.022-47.863H932.4zm566.717 90.333v-146.51c0-33.557-8.913-59.923-26.74-79.098-17.827-19.175-42.62-28.763-74.379-28.763-17.977 0-34.306 4.42-48.987 13.258-14.681 8.839-26.366 20.599-35.055 35.28-8.089-15.58-19.325-27.565-33.706-35.954-14.381-8.389-31.01-12.584-49.885-12.584-17.378 0-32.508 3.671-45.392 11.011-12.883 7.341-22.92 17.303-30.111 29.886v-38.65h-88.535v252.124h88.535V198.202c0-14.082 3.82-24.943 11.46-32.583 7.64-7.64 18.052-11.46 31.235-11.46 12.584 0 22.621 3.745 30.111 11.235 7.49 7.49 11.236 17.977 11.236 31.459v135.275h88.086V198.202c0-14.082 3.82-24.943 11.46-32.583 7.64-7.64 18.051-11.46 31.234-11.46 12.584 0 22.621 3.745 30.111 11.235 7.491 7.49 11.236 17.977 11.236 31.459v135.275h88.086zm-558.178-146.96c.299-12.883-3.146-22.62-10.337-29.212-7.191-6.591-16.179-9.887-26.965-9.887-11.685 0-21.198 3.296-28.538 9.887-7.341 6.592-11.61 16.329-12.808 29.212h78.648zM2000 413.473h-188.417l143.829-333.469h-97.973l-49.886 141.118-53.93-141.118H1655.2l105.164 241.338-43.642 92.131h-99.507V.042H2000v413.431z"/></svg>