<svg width="167" height="41" viewBox="0 0 167 41" fill="none" xmlns="http://www.w3.org/2000/svg">
<path d="M23.5 0H6.4C3 0 0 3 0 6.5V23.7C0 27.2 2.7 30.5 6.4 30.6H18.2V23.7C18.2 21 20.5 18.5 23.5 18.5L30.8 18.4V6.5C30.8 3 27.9 0 23.5 0Z" fill="white" fill-opacity="0.75"/>
<path d="M36.2 18.3994H30.7999V23.4994C30.7999 27.0994 27.7999 30.2994 24.0999 30.3994H18.2V35.6994C18.4 38.2994 20.1 40.3994 22.7 40.5994H36.7C39.1 40.5994 41.4999 38.5994 41.5999 35.7994V23.4994C41.6999 20.4994 39.3 18.3994 36.2 18.3994Z" fill="white" fill-opacity="0.5"/>
<path d="M41.5999 0.0996094C39.2999 0.299609 36.8999 2.29961 36.8999 5.09961V12.0996H42.2999C45.1999 11.9996 49.1999 9.59961 49.1999 5.79961V0.0996094H41.5999Z" fill="white"/>
<path d="M58.3999 0H63.4999C66.3999 0 67.4999 1.6 67.4999 3.5C67.4999 6 65.7999 6.8 63.8999 6.8H59.3999V12.1H58.3999V0ZM59.1999 5.9H63.4999C65.3999 5.9 66.5999 4.9 66.5999 3.5C66.5999 1.9 65.6999 0.699999 63.8999 0.699999H59.1999V5.9ZM68.3999 7.8C68.3999 9.9 69.3999 11.6 71.4999 11.6C73.5999 11.6 74.1999 10.3 74.4999 9.1H75.2999C74.8999 11.1 73.7999 12.3 71.4999 12.3C68.7999 12.3 67.5999 10.4 67.5999 7.9C67.5999 5.4 68.7999 3.2 71.4999 3.2C74.0999 3.2 75.3999 5.2 75.2999 7.8H68.3999ZM74.4999 7.1C74.4999 5.4 73.4999 3.8 71.4999 3.8C69.5999 3.8 68.5999 5.4 68.3999 7.1H74.4999ZM79.9999 4.1H78.1999V10.1C78.1999 11.4 78.7999 11.5 79.9999 11.5V12.1C78.5999 12.2 77.3999 12 77.3999 10.1V4.1H75.8999V3.5H77.3999V0.699999H78.1999V3.4H79.9999V4.1ZM81.3999 7.8C81.3999 9.9 82.3999 11.6 84.4999 11.6C86.0999 11.6 87.1999 10.7 87.4999 9.1H88.2999C87.9999 11.1 86.7999 12.3 84.4999 12.3C81.8999 12.3 80.5999 10.4 80.6999 7.9C80.6999 5.4 81.8999 3.2 84.4999 3.2C87.1999 3.2 88.3999 5.2 88.3999 7.8H81.3999ZM87.5999 7.1C87.4999 5.4 86.4999 3.8 84.4999 3.8C82.6999 3.8 81.6999 5.4 81.3999 7.1H87.5999ZM90.3999 5.3C90.7999 4.3 91.9999 3.4 93.3999 3.4V4.1C92.6999 4 91.8999 4.3 91.1999 5C90.5999 5.6 90.3999 6.1 90.2999 7.2V12.1H89.6999V3.5H90.3999V5.3ZM106.6 12.1H105.8V10.4V10.5C105.3 11.6 104.1 12.3 102.8 12.3C99.7999 12.3 99.6999 10.2 99.6999 9.1V3.5H100.3V9.2C100.3 10.1 100.5 11.7 102.7 11.7C104.6 11.7 105.8 10.3 105.8 8.3V3.5H106.6V12.1ZM108.6 3.5H109.2V5.1H109.3C109.7 4 110.9 3.2 112.2 3.2C115 3.2 115.2 5.3 115.2 6.5V12.1H114.6V6.4C114.6 5.4 114.4 3.8 112.3 3.8C110.4 3.8 109.2 5.2 109.2 7.3V12.1H108.5V3.5H108.6ZM124.1 10.4C123.4 11.6 122.5 12.3 121 12.3C118.4 12.3 117.3 10.3 117.3 7.8C117.3 5.2 118.4 3.4 121 3.4C122.3 3.4 123.5 4 124 5.2V0H124.7V12.1H124.1V10.4ZM124.1 7.8C124.1 5.9 123.2 4 121 4C118.8 4 117.9 5.8 117.9 7.8C117.9 9.8 118.9 11.6 121 11.6C123 11.6 124.1 9.9 124.1 7.8ZM131.3 0H132.1V11.3H139.2V12.1H131.3V0ZM147.5 12.1H146.9V10.4H146.8C146.4 11.6 145.2 12.3 143.8 12.3C140.9 12.3 140.7 10.2 140.7 9.1V3.5H141.4V9.2C141.4 10.1 141.6 11.7 143.8 11.7C145.7 11.7 146.9 10.3 146.9 8.3V3.5H147.6V12.1H147.5ZM149.6 1.9V0H150.2V1.8H149.6V1.9ZM149.6 12.1V3.4H150.2V12.1H149.6ZM152.3 9.3C152.5 10.7 153.5 11.6 155 11.6C156.5 11.6 157.6 11 157.6 9.9C157.6 7.1 152 8.9 152 5.6C152 4 153.4 3.3 154.9 3.3C156.7 3.3 158 4.1 158.1 5.9H157.4C157.3 4.5 156.3 4 154.9 4C153.7 4 152.7 4.5 152.7 5.6C152.7 8.1 158.3 6.5 158.3 9.9C158.3 11.6 156.7 12.3 155 12.3C153 12.3 151.7 11.3 151.6 9.3H152.3ZM159.8 7.8C159.8 9.9 160.9 11.6 162.9 11.6C164.9 11.6 165.6 10.3 165.9 9.1H166.8C166.4 11.1 165.2 12.3 162.9 12.3C160.3 12.3 159.1 10.4 159.1 7.9C159.1 5.4 160.3 3.2 162.9 3.2C165.6 3.2 166.8 5.2 166.9 7.8H159.8ZM166 7.1C165.9 5.4 165 3.8 162.9 3.8C161.1 3.8 160.1 5.4 159.9 7.1H166Z" fill="white"/>
<path d="M47.8999 18.3994H49.7999V24.0994H56.8999V18.3994H58.9999V32.0994H57.0999V25.9994H49.7999V32.0994H47.8999V18.3994ZM69.9999 31.9994C69.6999 32.1994 69.2999 32.2994 68.8999 32.2994C68.0999 32.2994 67.5999 31.8994 67.5999 30.8994C66.7999 31.8994 65.5999 32.3994 64.2999 32.3994C62.4999 32.3994 60.8999 31.6994 60.8999 29.6994C60.8999 27.4994 62.5999 26.9994 64.2999 26.6994C65.9999 26.3994 67.4999 26.4994 67.4999 25.2994C67.4999 23.9994 66.4999 23.7994 65.4999 23.7994C64.1999 23.7994 63.2999 24.1994 63.1999 25.5994H61.3999C61.5999 23.1994 63.3999 21.9994 65.5999 21.9994C67.2999 21.9994 69.3999 22.3994 69.3999 24.6994V29.6994C69.3999 30.3994 69.3999 30.6994 69.8999 30.6994H70.3999V31.9994H69.9999ZM67.3999 27.0994C66.7999 27.5994 65.5999 27.5994 64.4999 27.7994C63.4999 27.9994 62.5999 28.2994 62.5999 29.4994C62.5999 30.3994 63.4999 30.6994 64.3999 30.6994C66.3999 30.6994 67.3999 29.4994 67.3999 28.6994V27.0994ZM79.3999 31.3994C79.3999 34.4994 78.0999 35.8994 74.9999 35.8994C73.1999 35.8994 71.0999 35.2994 70.8999 32.9994H72.6999C72.7999 34.0994 74.0999 34.4994 75.0999 34.4994C77.0999 34.4994 77.8999 33.1994 77.8999 31.1994V30.5994C77.2999 31.6994 76.1999 32.0994 74.9999 32.0994C72.1999 32.0994 70.6999 29.9994 70.6999 27.2994C70.6999 24.9994 71.8999 21.9994 75.0999 21.9994C76.2999 21.9994 77.2999 22.4994 77.8999 23.4994V22.2994H79.4999V31.3994H79.3999ZM77.7999 26.9994C77.7999 25.3994 77.0999 23.6994 75.1999 23.6994C73.3999 23.6994 72.3999 25.2994 72.3999 27.1994C72.3999 28.7994 73.0999 30.5994 74.9999 30.5994C76.9999 30.5994 77.7999 28.7994 77.7999 26.9994ZM90.0999 29.0994C89.5999 31.1994 88.0999 32.2994 85.8999 32.2994C82.9999 32.2994 81.1999 30.2994 81.1999 27.1994C81.1999 24.3994 83.0999 22.0994 85.7999 21.9994C89.0999 21.9994 90.2999 24.9994 90.1999 27.5994H83.0999C83.0999 29.1994 83.9999 30.6994 85.8999 30.6994C87.1999 30.6994 88.0999 30.0994 88.3999 28.7994H90.0999V29.0994ZM88.3999 26.0994C88.2999 24.6994 87.2999 23.6994 85.7999 23.6994C84.1999 23.6994 83.1999 24.8994 83.0999 26.0994H88.3999ZM91.3999 22.0994H93.0999V23.9994C93.7999 22.6994 94.8999 21.8994 96.4999 21.8994L96.6999 23.6994C94.3999 23.6994 93.1999 25.0994 93.1999 27.5994V31.9994H91.5999V22.0994H91.3999ZM111.6 22.0994C111.4 20.3994 110.2 19.4994 108.5 19.4994C107.1 19.4994 105.6 19.9994 105.6 21.5994C105.6 23.1994 107.7 23.3994 109.7 23.8994C111.8 24.2994 113.9 25.0994 113.9 27.5994C113.9 30.3994 111.2 32.0994 108.7 31.9994C105.8 31.9994 103.2 30.6994 103 27.2994H104.9C105 29.3994 106.8 30.3994 108.7 30.3994C110.2 30.3994 112 29.8994 112 27.9994C112 26.4994 109.9 25.9994 107.9 25.5994C105.9 25.0994 103.4 24.6994 103.4 21.8994C103.4 19.0994 105.9 17.8994 108.4 17.8994C111 17.8994 113.1 19.0994 113.4 22.0994H111.6ZM118.1 22.0994H119.9V23.6994H118.1V29.4994C118.1 30.1994 118.4 30.3994 119.3 30.3994H119.9L119.8 31.9994H118.6C117.1 31.9994 116.2 31.6994 116.2 29.9994V23.6994H114.4V22.0994H116.1V19.2994H117.9V22.0994H118.1ZM123.4 20.3994H121.7V18.3994H123.4V20.3994ZM121.7 22.0994H123.4V32.0994H121.7V22.0994ZM126.4 23.6994H124.8V22.0994H126.4V20.9994C126.4 19.2994 127.4 18.3994 129.1 18.3994L130.1 18.5994V19.9994L129.3 19.8994C128.5 19.8994 128.1 20.1994 128.1 20.9994V22.0994H131.4V19.2994H133.1V22.0994H135.1V23.6994H133.1V29.1994C133.1 29.9994 133.2 30.4994 134.3 30.4994H135.1V31.9994H133.8C131.9 31.9994 131.3 31.3994 131.3 29.7994V23.6994H128.1V32.0994H126.4V23.6994ZM145.8 32.0994H144.1V30.6994C143.5 31.7994 142.3 32.2994 141 32.2994C138.5 32.3994 137.6 31.0994 137.6 28.9994V22.0994H139.4V29.0994C139.4 30.1994 140.1 30.8994 141.2 30.8994C143 30.8994 144 29.6994 144 28.1994V22.0994H145.9V32.0994H145.8ZM148.1 22.0994H149.8V23.4994C150.4 22.4994 151.5 21.7994 152.8 21.7994C154.9 21.7994 156.2 22.9994 156.2 25.1994V31.8994H154.4V25.6994C154.4 24.1994 153.8 23.4994 152.4 23.4994C150.9 23.4994 149.9 24.6994 149.9 26.1994V32.0994H148V22.0994H148.1ZM166.6 31.3994C166.6 34.4994 165.1 35.8994 162.1 35.8994C160.4 35.8994 158.3 35.2994 158 32.9994H159.8C160 34.0994 161.1 34.4994 162.1 34.4994C164.1 34.4994 165 33.1994 165 31.1994V30.5994C164.4 31.6994 163.3 32.1994 162.1 32.0994C159.2 32.2994 157.8 30.0994 157.8 27.2994C157.8 24.9994 158.8 22.0994 162.1 21.8994C163.3 21.8994 164.2 22.4994 164.9 23.3994V22.0994H166.6V31.3994ZM164.9 26.9994C164.9 25.2994 164.2 23.6994 162.4 23.6994C160.6 23.6994 159.6 25.2994 159.6 27.1994C159.6 28.7994 160.2 30.5994 162.1 30.5994C164.1 30.5994 164.9 28.7994 164.9 26.9994Z" fill="white"/>
</svg>
