<svg width="168" height="90" viewBox="0 0 168 90" fill="none" xmlns="http://www.w3.org/2000/svg">
<path d="M24 24.4004H6.9C3.5 24.4004 0.5 27.4004 0.5 30.9004V48.1004C0.5 51.6004 3.2 54.9004 6.9 55.0004H18.7V48.1004C18.7 45.4004 21 42.9004 24 42.9004L31.3 42.8004V30.9004C31.3 27.4004 28.4 24.4004 24 24.4004Z" fill="white" fill-opacity="0.75"/>
<path d="M36.7 42.7998H31.2999V47.8998C31.2999 51.4998 28.2999 54.6998 24.5999 54.7998H18.7V60.0998C18.9 62.6998 20.6 64.7998 23.2 64.9998H37.2C39.6 64.9998 41.9999 62.9998 42.0999 60.1998V47.8998C42.1999 44.8998 39.8 42.7998 36.7 42.7998Z" fill="white" fill-opacity="0.5"/>
<path d="M42.0999 24.5C39.7999 24.7 37.3999 26.7 37.3999 29.5V36.5H42.7999C45.6999 36.4 49.6999 34 49.6999 30.2V24.5H42.0999Z" fill="white"/>
<path d="M58.8999 24.4004H63.9999C66.8999 24.4004 67.9999 26.0004 67.9999 27.9004C67.9999 30.4004 66.2999 31.2004 64.3999 31.2004H59.8999V36.5004H58.8999V24.4004ZM59.6999 30.3004H63.9999C65.8999 30.3004 67.0999 29.3004 67.0999 27.9004C67.0999 26.3004 66.1999 25.1004 64.3999 25.1004H59.6999V30.3004ZM68.8999 32.2004C68.8999 34.3004 69.8999 36.0004 71.9999 36.0004C74.0999 36.0004 74.6999 34.7004 74.9999 33.5004H75.7999C75.3999 35.5004 74.2999 36.7004 71.9999 36.7004C69.2999 36.7004 68.0999 34.8004 68.0999 32.3004C68.0999 29.8004 69.2999 27.6004 71.9999 27.6004C74.5999 27.6004 75.8999 29.6004 75.7999 32.2004H68.8999ZM74.9999 31.5004C74.9999 29.8004 73.9999 28.2004 71.9999 28.2004C70.0999 28.2004 69.0999 29.8004 68.8999 31.5004H74.9999ZM80.4999 28.5004H78.6999V34.5004C78.6999 35.8004 79.2999 35.9004 80.4999 35.9004V36.5004C79.0999 36.6004 77.8999 36.4004 77.8999 34.5004V28.5004H76.3999V27.9004H77.8999V25.1004H78.6999V27.8004H80.4999V28.5004ZM81.8999 32.2004C81.8999 34.3004 82.8999 36.0004 84.9999 36.0004C86.5999 36.0004 87.6999 35.1004 87.9999 33.5004H88.7999C88.4999 35.5004 87.2999 36.7004 84.9999 36.7004C82.3999 36.7004 81.0999 34.8004 81.1999 32.3004C81.1999 29.8004 82.3999 27.6004 84.9999 27.6004C87.6999 27.6004 88.8999 29.6004 88.8999 32.2004H81.8999ZM88.0999 31.5004C87.9999 29.8004 86.9999 28.2004 84.9999 28.2004C83.1999 28.2004 82.1999 29.8004 81.8999 31.5004H88.0999ZM90.8999 29.7004C91.2999 28.7004 92.4999 27.8004 93.8999 27.8004V28.5004C93.1999 28.4004 92.3999 28.7004 91.6999 29.4004C91.0999 30.0004 90.8999 30.5004 90.7999 31.6004V36.5004H90.1999V27.9004H90.8999V29.7004ZM107.1 36.5004H106.3V34.8004V34.9004C105.8 36.0004 104.6 36.7004 103.3 36.7004C100.3 36.7004 100.2 34.6004 100.2 33.5004V27.9004H100.8V33.6004C100.8 34.5004 101 36.1004 103.2 36.1004C105.1 36.1004 106.3 34.7004 106.3 32.7004V27.9004H107.1V36.5004ZM109.1 27.9004H109.7V29.5004H109.8C110.2 28.4004 111.4 27.6004 112.7 27.6004C115.5 27.6004 115.7 29.7004 115.7 30.9004V36.5004H115.1V30.8004C115.1 29.8004 114.9 28.2004 112.8 28.2004C110.9 28.2004 109.7 29.6004 109.7 31.7004V36.5004H109V27.9004H109.1ZM124.6 34.8004C123.9 36.0004 123 36.7004 121.5 36.7004C118.9 36.7004 117.8 34.7004 117.8 32.2004C117.8 29.6004 118.9 27.8004 121.5 27.8004C122.8 27.8004 124 28.4004 124.5 29.6004V24.4004H125.2V36.5004H124.6V34.8004ZM124.6 32.2004C124.6 30.3004 123.7 28.4004 121.5 28.4004C119.3 28.4004 118.4 30.2004 118.4 32.2004C118.4 34.2004 119.4 36.0004 121.5 36.0004C123.5 36.0004 124.6 34.3004 124.6 32.2004ZM131.8 24.4004H132.6V35.7004H139.7V36.5004H131.8V24.4004ZM148 36.5004H147.4V34.8004H147.3C146.9 36.0004 145.7 36.7004 144.3 36.7004C141.4 36.7004 141.2 34.6004 141.2 33.5004V27.9004H141.9V33.6004C141.9 34.5004 142.1 36.1004 144.3 36.1004C146.2 36.1004 147.4 34.7004 147.4 32.7004V27.9004H148.1V36.5004H148ZM150.1 26.3004V24.4004H150.7V26.2004H150.1V26.3004ZM150.1 36.5004V27.8004H150.7V36.5004H150.1ZM152.8 33.7004C153 35.1004 154 36.0004 155.5 36.0004C157 36.0004 158.1 35.4004 158.1 34.3004C158.1 31.5004 152.5 33.3004 152.5 30.0004C152.5 28.4004 153.9 27.7004 155.4 27.7004C157.2 27.7004 158.5 28.5004 158.6 30.3004H157.9C157.8 28.9004 156.8 28.4004 155.4 28.4004C154.2 28.4004 153.2 28.9004 153.2 30.0004C153.2 32.5004 158.8 30.9004 158.8 34.3004C158.8 36.0004 157.2 36.7004 155.5 36.7004C153.5 36.7004 152.2 35.7004 152.1 33.7004H152.8ZM160.3 32.2004C160.3 34.3004 161.4 36.0004 163.4 36.0004C165.4 36.0004 166.1 34.7004 166.4 33.5004H167.3C166.9 35.5004 165.7 36.7004 163.4 36.7004C160.8 36.7004 159.6 34.8004 159.6 32.3004C159.6 29.8004 160.8 27.6004 163.4 27.6004C166.1 27.6004 167.3 29.6004 167.4 32.2004H160.3ZM166.5 31.5004C166.4 29.8004 165.5 28.2004 163.4 28.2004C161.6 28.2004 160.6 29.8004 160.4 31.5004H166.5Z" fill="white"/>
<path d="M48.3999 42.7998H50.2999V48.4998H57.3999V42.7998H59.4999V56.4998H57.5999V50.3998H50.2999V56.4998H48.3999V42.7998ZM70.4999 56.3998C70.1999 56.5998 69.7999 56.6998 69.3999 56.6998C68.5999 56.6998 68.0999 56.2998 68.0999 55.2998C67.2999 56.2998 66.0999 56.7998 64.7999 56.7998C62.9999 56.7998 61.3999 56.0998 61.3999 54.0998C61.3999 51.8998 63.0999 51.3998 64.7999 51.0998C66.4999 50.7998 67.9999 50.8998 67.9999 49.6998C67.9999 48.3998 66.9999 48.1998 65.9999 48.1998C64.6999 48.1998 63.7999 48.5998 63.6999 49.9998H61.8999C62.0999 47.5998 63.8999 46.3998 66.0999 46.3998C67.7999 46.3998 69.8999 46.7998 69.8999 49.0998V54.0998C69.8999 54.7998 69.8999 55.0998 70.3999 55.0998H70.8999V56.3998H70.4999ZM67.8999 51.4998C67.2999 51.9998 66.0999 51.9998 64.9999 52.1998C63.9999 52.3998 63.0999 52.6998 63.0999 53.8998C63.0999 54.7998 63.9999 55.0998 64.8999 55.0998C66.8999 55.0998 67.8999 53.8998 67.8999 53.0998V51.4998ZM79.8999 55.7998C79.8999 58.8998 78.5999 60.2998 75.4999 60.2998C73.6999 60.2998 71.5999 59.6998 71.3999 57.3998H73.1999C73.2999 58.4998 74.5999 58.8998 75.5999 58.8998C77.5999 58.8998 78.3999 57.5998 78.3999 55.5998V54.9998C77.7999 56.0998 76.6999 56.4998 75.4999 56.4998C72.6999 56.4998 71.1999 54.3998 71.1999 51.6998C71.1999 49.3998 72.3999 46.3998 75.5999 46.3998C76.7999 46.3998 77.7999 46.8998 78.3999 47.8998V46.6998H79.9999V55.7998H79.8999ZM78.2999 51.3998C78.2999 49.7998 77.5999 48.0998 75.6999 48.0998C73.8999 48.0998 72.8999 49.6998 72.8999 51.5998C72.8999 53.1998 73.5999 54.9998 75.4999 54.9998C77.4999 54.9998 78.2999 53.1998 78.2999 51.3998ZM90.5999 53.4998C90.0999 55.5998 88.5999 56.6998 86.3999 56.6998C83.4999 56.6998 81.6999 54.6998 81.6999 51.5998C81.6999 48.7998 83.5999 46.4998 86.2999 46.3998C89.5999 46.3998 90.7999 49.3998 90.6999 51.9998H83.5999C83.5999 53.5998 84.4999 55.0998 86.3999 55.0998C87.6999 55.0998 88.5999 54.4998 88.8999 53.1998H90.5999V53.4998ZM88.8999 50.4998C88.7999 49.0998 87.7999 48.0998 86.2999 48.0998C84.6999 48.0998 83.6999 49.2998 83.5999 50.4998H88.8999ZM91.8999 46.4998H93.5999V48.3998C94.2999 47.0998 95.3999 46.2998 96.9999 46.2998L97.1999 48.0998C94.8999 48.0998 93.6999 49.4998 93.6999 51.9998V56.3998H92.0999V46.4998H91.8999ZM112.1 46.4998C111.9 44.7998 110.7 43.8998 109 43.8998C107.6 43.8998 106.1 44.3998 106.1 45.9998C106.1 47.5998 108.2 47.7998 110.2 48.2998C112.3 48.6998 114.4 49.4998 114.4 51.9998C114.4 54.7998 111.7 56.4998 109.2 56.3998C106.3 56.3998 103.7 55.0998 103.5 51.6998H105.4C105.5 53.7998 107.3 54.7998 109.2 54.7998C110.7 54.7998 112.5 54.2998 112.5 52.3998C112.5 50.8998 110.4 50.3998 108.4 49.9998C106.4 49.4998 103.9 49.0998 103.9 46.2998C103.9 43.4998 106.4 42.2998 108.9 42.2998C111.5 42.2998 113.6 43.4998 113.9 46.4998H112.1ZM118.6 46.4998H120.4V48.0998H118.6V53.8998C118.6 54.5998 118.9 54.7998 119.8 54.7998H120.4L120.3 56.3998H119.1C117.6 56.3998 116.7 56.0998 116.7 54.3998V48.0998H114.9V46.4998H116.6V43.6998H118.4V46.4998H118.6ZM123.9 44.7998H122.2V42.7998H123.9V44.7998ZM122.2 46.4998H123.9V56.4998H122.2V46.4998ZM126.9 48.0998H125.3V46.4998H126.9V45.3998C126.9 43.6998 127.9 42.7998 129.6 42.7998L130.6 42.9998V44.3998L129.8 44.2998C129 44.2998 128.6 44.5998 128.6 45.3998V46.4998H131.9V43.6998H133.6V46.4998H135.6V48.0998H133.6V53.5998C133.6 54.3998 133.7 54.8998 134.8 54.8998H135.6V56.3998H134.3C132.4 56.3998 131.8 55.7998 131.8 54.1998V48.0998H128.6V56.4998H126.9V48.0998ZM146.3 56.4998H144.6V55.0998C144 56.1998 142.8 56.6998 141.5 56.6998C139 56.7998 138.1 55.4998 138.1 53.3998V46.4998H139.9V53.4998C139.9 54.5998 140.6 55.2998 141.7 55.2998C143.5 55.2998 144.5 54.0998 144.5 52.5998V46.4998H146.4V56.4998H146.3ZM148.6 46.4998H150.3V47.8998C150.9 46.8998 152 46.1998 153.3 46.1998C155.4 46.1998 156.7 47.3998 156.7 49.5998V56.2998H154.9V50.0998C154.9 48.5998 154.3 47.8998 152.9 47.8998C151.4 47.8998 150.4 49.0998 150.4 50.5998V56.4998H148.5V46.4998H148.6ZM167.1 55.7998C167.1 58.8998 165.6 60.2998 162.6 60.2998C160.9 60.2998 158.8 59.6998 158.5 57.3998H160.3C160.5 58.4998 161.6 58.8998 162.6 58.8998C164.6 58.8998 165.5 57.5998 165.5 55.5998V54.9998C164.9 56.0998 163.8 56.5998 162.6 56.4998C159.7 56.6998 158.3 54.4998 158.3 51.6998C158.3 49.3998 159.3 46.4998 162.6 46.2998C163.8 46.2998 164.7 46.8998 165.4 47.7998V46.4998H167.1V55.7998ZM165.4 51.3998C165.4 49.6998 164.7 48.0998 162.9 48.0998C161.1 48.0998 160.1 49.6998 160.1 51.5998C160.1 53.1998 160.7 54.9998 162.6 54.9998C164.6 54.9998 165.4 53.1998 165.4 51.3998Z" fill="white"/>
</svg>
