<?xml version="1.0" standalone="no"?>
<svg xmlns="http://www.w3.org/2000/svg" width="193.863" height="36.338" viewBox="0 0 193.863 36.338">
    <defs>
        <style>
            .cls-1{fill-rule:evenodd}
        </style>
    </defs>
    <g id="Gruppe_106" transform="translate(-105.186 -340.067)">
        <g id="Gruppe_83" transform="translate(232.729 340.067)">
            <path id="Rechteck_229" d="M0 0H2.485V2.459H0z"/>
        </g>
        <g id="Gruppe_84" transform="translate(236.961 340.067)">
            <path id="Rechteck_230" d="M0 0H2.498V2.459H0z"/>
        </g>
        <g id="Gruppe_85" transform="translate(139.88 343.91)">
            <path id="Pfad_232" d="M517.2 420.026h-21.27v7.247h6.224v24.975h8.826v-24.975h6.22zm-23.384 32.183H485v-32.183h8.825zm-10.327 0h-9.822L462 439.683V432.5l11.31-12.5h10.12l-13.03 16.2z" class="cls-1" transform="translate(-462 -420)"/>
        </g>
        <g id="Gruppe_86" transform="translate(108.331 355.712)">
            <path id="Pfad_233" d="M222.457 511.2a31.039 31.039 0 0 0-4.257 6.716l29.44 13.691-25.183-20.407z" class="cls-1" transform="translate(-218.2 -511.2)"/>
        </g>
        <g id="Gruppe_87" transform="translate(117.299 346.912)">
            <path id="Pfad_234" d="M307.959 472.407L294.242 443.2a31.741 31.741 0 0 0-6.742 4.167l20.459 25.04z" class="cls-1" transform="translate(-287.5 -443.2)"/>
        </g>
        <g id="Gruppe_88" transform="translate(129.916 343.936)">
            <path id="Pfad_235" d="M392.842 452.383l.039-32.183h-.272a32.838 32.838 0 0 0-7.609.919z" class="cls-1" transform="translate(-385 -420.2)"/>
        </g>
        <g id="Gruppe_89" transform="translate(105.186 368.251)">
            <path id="Pfad_236" d="M194.922 608.1a32.214 32.214 0 0 0-1.022 7.868h32.584z" class="cls-1" transform="translate(-193.9 -608.1)"/>
        </g>
        <g id="Gruppe_90" transform="translate(201.05 343.832)">
            <path id="Pfad_237" d="M934.7 426.53c0-4.439 3.132-7.13 8.036-7.13a13.049 13.049 0 0 1 4 .569l-.233 2.679a8.45 8.45 0 0 0-3.7-.763 4.345 4.345 0 0 0-4.684 4.594c0 2.756 1.592 4.568 4.413 4.568a7.572 7.572 0 0 0 1.514-.155V427.8h-2.536v-2.381h5.513v7.493a15.5 15.5 0 0 1-4.452.647c-4.83-.015-7.871-2.577-7.871-7.029z" transform="translate(-934.7 -419.4)"/>
        </g>
        <g id="Gruppe_91" transform="translate(216.696 344.014)">
            <path id="Pfad_238" d="M1064.84 429.522a2.529 2.529 0 0 0-1.889-1.8v-.039c1.928-.375 2.976-1.475 2.976-3.274 0-2.95-2.536-3.61-5.991-3.61h-4.336v13.756h3.274v-5.5h.764c1.4 0 1.915.388 2.446 1.85l1.32 3.649h3.468zm-5.24-2.822h-.725v-3.494h.725c1.967 0 3.054.311 3.054 1.669-.001 1.325-.985 1.825-3.054 1.825z" transform="translate(-1055.6 -420.8)"/>
        </g>
        <g id="Gruppe_92" transform="translate(230.335 344.027)">
            <path id="Pfad_239" d="M1161 429.195V420.9h3.248v8.373c0 2.161.634 3.17 2.5 3.17 1.734 0 2.614-1.009 2.614-3.17V420.9h3.157v8.295c0 4.025-2.226 5.694-5.8 5.694-3.895 0-5.719-1.851-5.719-5.694z" transform="translate(-1161 -420.9)"/>
        </g>
        <g id="Gruppe_93" transform="translate(245.191 344.027)">
            <path id="Pfad_240" d="M1275.8 420.9h4.18l2.989 5.875c.518.983 1.7 3.507 2.083 4.477h.039c-.065-1.009-.117-3.817-.117-5.306V420.9h2.9v13.756h-4.063l-2.977-5.656c-.789-1.514-1.85-3.817-2.226-4.723h-.039c.065.841.1 3.7.1 4.892v5.5h-2.869V420.9z" transform="translate(-1275.8 -420.9)"/>
        </g>
        <g id="Gruppe_94" transform="translate(260.603 344.027)">
            <path id="Pfad_241" d="M1399.248 420.9h-4.348v13.756h4.361c4.555 0 8.178-2.006 8.178-6.82-.012-5.086-3.545-6.936-8.191-6.936zm-.414 11.375h-.673v-8.929h.673c2.95 0 5.241.971 5.241 4.477 0 3.339-2.291 4.452-5.241 4.452z" transform="translate(-1394.9 -420.9)"/>
        </g>
        <g id="Gruppe_95" transform="translate(275.692 344.027)">
            <path id="Pfad_242" d="M1511.5 420.9h8.787v2.459h-5.59v3.08h5.2v2.446h-5.2v3.287h5.733v2.485h-8.93z" transform="translate(-1511.5 -420.9)"/>
        </g>
        <g id="Gruppe_96" transform="translate(287.727 344.014)">
            <path id="Pfad_243" d="M1613.74 429.522a2.528 2.528 0 0 0-1.889-1.8v-.039c1.928-.375 2.976-1.475 2.976-3.274 0-2.95-2.536-3.61-5.992-3.61h-4.335v13.756h3.274v-5.5h.763c1.4 0 1.915.388 2.446 1.85l1.32 3.649h3.468zm-5.24-2.822h-.724v-3.494h.724c1.967 0 3.054.311 3.054 1.669-.001 1.325-.985 1.825-3.054 1.825z" transform="translate(-1604.5 -420.8)"/>
        </g>
        <g id="Gruppe_97" transform="translate(201.05 362.156)">
            <path id="Pfad_244" d="M934.8 574.665l.272-2.717a8.53 8.53 0 0 0 3.442.8c1.385 0 2.329-.531 2.329-1.54 0-.893-.608-1.385-2.575-2.109-2.3-.841-3.572-1.967-3.572-3.986 0-2.64 2.226-4.115 5.267-4.115a11.117 11.117 0 0 1 3.533.479l-.22 2.536a8.306 8.306 0 0 0-2.976-.6c-1.359 0-2.291.492-2.291 1.385 0 .763.453 1.178 2.407 1.915 2.5.906 3.727 2.07 3.727 4.154 0 2.717-2.083 4.374-5.435 4.374a12.309 12.309 0 0 1-3.908-.576z" transform="translate(-934.7 -561)"/>
        </g>
        <g id="Gruppe_98" transform="translate(211.998 362.208)">
            <path id="Pfad_245" d="M1019.3 568.453c0-4.439 3.235-7.053 7.726-7.053a9.588 9.588 0 0 1 3.313.479l-.22 2.614a6.891 6.891 0 0 0-2.873-.6c-2.7 0-4.555 1.54-4.555 4.478a4.351 4.351 0 0 0 4.671 4.607 7.668 7.668 0 0 0 2.912-.531l.181 2.666a12.333 12.333 0 0 1-3.287.427c-4.723.004-7.868-2.455-7.868-7.087z" transform="translate(-1019.3 -561.4)"/>
        </g>
        <g id="Gruppe_99" transform="translate(225.34 362.402)">
            <path id="Pfad_246" d="M1122.4 562.9h3.274v5.357h5.176V562.9h3.274v13.756h-3.274v-5.836h-5.176v5.836h-3.274z" transform="translate(-1122.4 -562.9)"/>
        </g>
        <g id="Gruppe_100" transform="translate(239.743 362.402)">
            <path id="Pfad_247" d="M1233.7 562.9h5.2l1.708 5.435c.427 1.4.906 3.132 1.294 4.646h.039c.414-1.514.906-3.248 1.359-4.646l1.773-5.435h5.008v13.756h-3.119v-5.513c0-1.7.026-4.1.065-5.953h-.039c-.44 1.54-1.139 3.947-1.553 5.1l-2.226 6.367h-2.873l-2.161-6.341c-.22-.634-1.216-3.882-1.579-5.125h-.039c.039 1.85.078 4.257.078 5.953v5.513h-2.935V562.9z" transform="translate(-1233.7 -562.9)"/>
        </g>
        <g id="Gruppe_101" transform="translate(258.83 362.402)">
            <path id="Rechteck_231" d="M0 0H3.248V13.756H0z"/>
        </g>
        <g id="Gruppe_102" transform="translate(264.666 362.402)">
            <path id="Pfad_248" d="M1426.3 562.9h8.787v2.459h-5.6v3.08h5.2v2.446h-5.2v3.287h5.733v2.485h-8.92z" transform="translate(-1426.3 -562.9)"/>
        </g>
        <g id="Gruppe_103" transform="translate(275.679 362.402)">
            <path id="Pfad_249" d="M1515.748 562.9h-4.348v13.756h4.348c4.555 0 8.178-2.006 8.178-6.82 0-5.086-3.52-6.936-8.178-6.936zm-.414 11.362h-.673v-8.929h.673c2.95 0 5.241.971 5.241 4.477 0 3.352-2.275 4.452-5.241 4.452z" transform="translate(-1511.4 -562.9)"/>
        </g>
        <g id="Gruppe_104" transform="translate(290.121 362.402)">
            <path id="Pfad_250" d="M1623 562.9h8.787v2.459h-5.59v3.08h5.2v2.446h-5.2v3.287h5.733v2.485H1623z" transform="translate(-1623 -562.9)"/>
        </g>
    </g>
</svg>
