<svg width="250" height="47" viewBox="0 0 250 47" fill="none" xmlns="http://www.w3.org/2000/svg">
<g clip-path="url(#clip0_705_383)">
<path d="M164.476 0H167.68V3.1805H164.476V0Z" fill="white"/>
<path d="M169.933 0H173.154V3.1805H169.933V0Z" fill="white"/>
<path fill-rule="evenodd" clip-rule="evenodd" d="M115.925 5.00433H88.4955V14.3777H96.5218V46.6806H107.904V14.3777H115.925V5.00433ZM85.7693 46.6302H74.4005V5.00433H85.781L85.7693 46.6302ZM72.452 46.6302H59.7858L44.7404 30.4289V21.1384L59.3254 4.9707H72.3758L55.5727 25.924L72.452 46.6302Z" fill="white"/>
<path fill-rule="evenodd" clip-rule="evenodd" d="M9.54537 20.2354C7.35173 22.8828 5.50668 25.8023 4.05566 28.9219L42.0206 46.63L9.54537 20.2354Z" fill="white"/>
<path fill-rule="evenodd" clip-rule="evenodd" d="M42.0039 46.6302L24.3149 8.85352C21.2037 10.2787 18.2828 12.0893 15.6206 14.2432L42.0039 46.6302Z" fill="white"/>
<path fill-rule="evenodd" clip-rule="evenodd" d="M42.0039 46.6298L42.0542 5.00391H41.7035C38.3976 5.01462 35.1044 5.41352 31.8911 6.19252L42.0039 46.6298Z" fill="white"/>
<path fill-rule="evenodd" clip-rule="evenodd" d="M1.31795 36.4531C0.462222 39.7779 0.019548 43.196 0 46.6297H42.0194L1.31795 36.4531Z" fill="white"/>
<path d="M123.623 14.0919C123.623 8.35043 127.662 4.86985 133.986 4.86985C135.734 4.84508 137.474 5.09337 139.145 5.6058L138.844 9.07087C137.348 8.38497 135.717 8.04758 134.073 8.084C133.273 8.01976 132.469 8.12844 131.715 8.40269C130.961 8.67695 130.275 9.11036 129.702 9.67369C129.129 10.237 128.684 10.9171 128.396 11.6679C128.108 12.4188 127.984 13.2229 128.032 14.0259C128.032 17.5906 130.085 19.9342 133.723 19.9342C134.379 19.9333 135.033 19.8662 135.676 19.7337V15.7345H132.405V12.6549H139.515V22.3464C137.652 22.9039 135.718 23.1858 133.774 23.1833C127.545 23.1639 123.623 19.8502 123.623 14.0919Z" fill="white"/>
<path d="M155.716 16.3859C155.559 15.8124 155.249 15.2926 154.82 14.8824C154.391 14.4722 153.858 14.1871 153.28 14.0578V14.0074C155.766 13.5223 157.117 12.0996 157.117 9.77271C157.117 5.95715 153.847 5.10352 149.392 5.10352H143.8V22.8957H148.022V15.7819H149.007C150.813 15.7819 151.477 16.2838 152.162 18.1747L153.864 22.8944H158.336L155.716 16.3859ZM148.958 12.7359H148.023V8.21673H148.958C151.495 8.21673 152.897 8.61899 152.897 10.3754C152.895 12.0892 151.626 12.7359 148.958 12.7359Z" fill="white"/>
<path d="M161.388 15.8509V5.12207H165.577V15.9518C165.577 18.7469 166.395 20.0519 168.801 20.0519C171.037 20.0519 172.172 18.7469 172.172 15.9518V5.12207H176.243V15.8509C176.243 21.0569 173.372 23.2156 168.763 23.2156C163.741 23.2156 161.388 20.8215 161.388 15.8509Z" fill="white"/>
<path d="M180.546 5.12207H185.937L189.791 12.7209C190.459 13.9923 191.983 17.2569 192.477 18.5115H192.528C192.444 17.2064 192.377 13.5745 192.377 11.6487V5.12207H196.117V22.9143H190.877L187.038 15.5987C186.02 13.6405 184.652 10.6618 184.167 9.48994H184.117C184.201 10.5777 184.246 14.2756 184.246 15.8173V22.9311H180.546V5.12207Z" fill="white"/>
<path d="M206.028 5.12207H200.421V22.9143H206.045C211.919 22.9143 216.591 20.3197 216.591 14.0932C216.576 7.51489 212.02 5.12207 206.028 5.12207ZM205.494 19.8346H204.626V8.28577H205.494C209.298 8.28577 212.253 9.54166 212.253 14.0764C212.253 18.3951 209.298 19.8346 205.494 19.8346Z" fill="white"/>
<path d="M219.88 5.12207H231.211V8.30259H224.002V12.2863H230.708V15.45H224.002V19.7014H231.395V22.9156H219.88V5.12207Z" fill="white"/>
<path d="M247.315 16.3859C247.158 15.8124 246.849 15.2925 246.42 14.8823C245.99 14.4721 245.458 14.187 244.879 14.0578V14.0074C247.365 13.5223 248.717 12.0996 248.717 9.77271C248.717 5.95715 245.446 5.10352 240.99 5.10352H235.399V22.8957H239.622V15.7819H240.605C242.411 15.7819 243.075 16.2838 243.76 18.1747L245.462 22.8944H249.934L247.315 16.3859ZM240.558 12.7359H239.624V8.21673H240.558C243.094 8.21673 244.496 8.61899 244.496 10.3754C244.495 12.0892 243.226 12.7359 240.558 12.7359Z" fill="white"/>
<path d="M123.752 46.2445L124.103 42.7303C125.494 43.3822 127.006 43.7347 128.542 43.7651C130.328 43.7651 131.545 43.0783 131.545 41.7732C131.545 40.6182 130.761 39.9818 128.225 39.0454C125.259 37.9577 123.618 36.5012 123.618 33.8898C123.618 30.4752 126.489 28.5675 130.41 28.5675C131.952 28.5268 133.491 28.736 134.966 29.187L134.683 32.4671C133.462 31.9742 132.161 31.7111 130.845 31.6911C129.092 31.6911 127.89 32.3274 127.89 33.4824C127.89 34.4693 128.475 35.0061 130.995 35.9594C134.218 37.1312 135.801 38.6367 135.801 41.3322C135.801 44.8464 133.115 46.9896 128.792 46.9896C127.083 47.015 125.381 46.7634 123.752 46.2445Z" fill="white"/>
<path d="M137.742 37.7596C137.742 32.0181 141.913 28.6372 147.705 28.6372C149.154 28.5908 150.6 28.8005 151.977 29.2567L151.693 32.6376C150.528 32.1151 149.265 31.8504 147.988 31.8616C144.507 31.8616 142.114 33.8534 142.114 37.6535C142.065 38.456 142.188 39.2599 142.474 40.011C142.76 40.762 143.204 41.4427 143.775 42.0074C144.345 42.572 145.03 43.0074 145.783 43.2842C146.536 43.561 147.339 43.673 148.138 43.6123C149.423 43.6301 150.698 43.3969 151.893 42.9255L152.127 46.3737C150.745 46.7482 149.319 46.934 147.888 46.9259C141.797 46.9311 137.742 43.7506 137.742 37.7596Z" fill="white"/>
<path d="M154.947 28.8887H159.169V35.8175H165.844V28.8887H170.066V46.6808H165.844V39.1325H159.169V46.6808H154.947V28.8887Z" fill="white"/>
<path d="M173.521 28.8887H180.227L182.429 35.9184C182.98 37.7291 183.597 39.9693 184.098 41.9275H184.148C184.682 39.9693 185.317 37.7266 185.901 35.9184L188.187 28.8887H194.645V46.6808H190.623V39.5502C190.623 37.3514 190.657 34.2472 190.707 31.8506H190.657C190.089 33.8424 189.188 36.9556 188.654 38.4469L185.783 46.6821H182.078L179.292 38.4806C179.008 37.6605 177.723 33.4595 177.255 31.8518H177.205C177.255 34.2446 177.306 37.3579 177.306 39.5515V46.6821H173.521V28.8887Z" fill="white"/>
<path d="M198.135 28.8887H202.323V46.6808H198.135V28.8887Z" fill="white"/>
<path d="M205.661 28.8887H216.992V32.0692H209.771V36.0529H216.476V39.2165H209.771V43.468H217.164V46.6821H205.661V28.8887Z" fill="white"/>
<path d="M225.47 28.8887H219.863V46.6808H225.47C231.344 46.6808 236.016 44.0862 236.016 37.8597C236.016 31.2815 231.477 28.8887 225.47 28.8887ZM224.936 43.5844H224.068V32.0355H224.936C228.74 32.0355 231.694 33.2914 231.694 37.8261C231.694 42.1616 228.761 43.5844 224.936 43.5844Z" fill="white"/>
<path d="M238.487 28.8887H249.818V32.0692H242.609V36.0529H249.315V39.2165H242.609V43.468H250.003V46.6821H238.487V28.8887Z" fill="white"/>
</g>
<defs>
<clipPath id="clip0_705_383">
<rect width="250" height="47" fill="white"/>
</clipPath>
</defs>
</svg>
