<svg width="122" height="32" viewBox="0 0 122 32" fill="none" xmlns="http://www.w3.org/2000/svg">
<g clip-path="url(#clip0_1022_104)">
<mask id="mask0_1022_104" style="mask-type:luminance" maskUnits="userSpaceOnUse" x="0" y="0" width="122" height="32">
<path d="M121.061 0H0V32H121.061V0Z" fill="white"/>
</mask>
<g mask="url(#mask0_1022_104)">
<path d="M14.9942 18.9119C14.9942 17.6175 14.6641 16.6238 14.0038 15.9276C13.3436 15.2314 12.4022 14.8849 11.183 14.8849C9.9638 14.8849 8.9832 15.2314 8.32294 15.9276C7.66267 16.6238 7.33581 17.6175 7.33581 18.9119V28.404H3.23693V19.2714C3.23693 18.1437 2.94275 17.1795 2.35767 16.3787C1.76931 15.5746 0.984838 15.0778 0.000976562 14.8849V10.9658C1.20057 11.0606 2.27268 11.3613 3.21732 11.8647C4.16523 12.3681 4.90067 13.0643 5.43019 13.9501C5.98259 13.0381 6.8259 12.3158 7.96339 11.7764C9.10087 11.2371 10.3789 10.9658 11.7942 10.9658C13.2096 10.9658 14.468 11.2534 15.5695 11.8287C16.671 12.404 17.534 13.195 18.1583 14.2018C18.7826 15.2085 19.0931 16.3362 19.0931 17.5815V28.404H14.9942V18.9119Z" fill="#002744"/>
<path d="M24.8457 0H27.0749V32H24.8457V0Z" fill="#002744"/>
<path d="M36.3877 7.76649H36.3517V28.4046H32.8281V3.5957H37.8259L49.3674 23.2631H49.4034V3.5957H52.927V28.4046H48.5045L36.3877 7.76649Z" fill="#002744"/>
<path d="M59.3074 26.3748C57.8104 24.7797 57.0586 22.6191 57.0586 19.8865C57.0586 18.0659 57.3953 16.4839 58.0653 15.1405C58.7354 13.7971 59.6899 12.7674 60.9221 12.0483C62.1577 11.3292 63.6024 10.9697 65.2563 10.9697C67.6294 10.9697 69.499 11.7019 70.8653 13.1629C72.2316 14.624 72.9148 16.6016 72.9148 19.0955V20.6056H60.5462C60.641 22.3544 61.0856 23.6978 61.8766 24.6326C62.6676 25.5674 63.7822 26.0349 65.2204 26.0349C66.3938 26.0349 67.3581 25.7537 68.1131 25.1915C68.8682 24.6293 69.3193 23.8547 69.4598 22.8741L72.8036 23.1258C72.565 24.8026 71.8263 26.1623 70.594 27.205C69.3585 28.2477 67.6621 28.7707 65.5048 28.7707C62.867 28.7707 60.8012 27.9732 59.3041 26.3781L59.3074 26.3748ZM69.5023 18.0855C69.4304 16.7421 69.0153 15.6765 68.2635 14.8855C67.5084 14.0945 66.4592 13.699 65.1191 13.699C63.7789 13.699 62.7983 14.0716 62.0433 14.8136C61.2882 15.5556 60.8143 16.6473 60.6247 18.0855H69.5056H69.5023Z" fill="#002744"/>
<path d="M77.6085 27.3809C76.4448 26.4592 75.8042 25.1713 75.6865 23.5174L79.0663 23.2657C79.1611 24.1515 79.5174 24.8347 80.1286 25.3151C80.7398 25.7956 81.6093 26.0342 82.7337 26.0342C83.9562 26.0342 84.8485 25.776 85.414 25.2628C85.9762 24.7464 86.2573 24.1548 86.2573 23.4814C86.2573 22.7133 85.9206 22.174 85.2506 21.8635C84.5805 21.5529 83.5378 21.2653 82.1225 21.0005C80.8281 20.7619 79.7854 20.5037 78.9944 20.2259C78.2034 19.9513 77.5202 19.4937 76.9449 18.8596C76.3697 18.2255 76.082 17.3429 76.082 16.2152C76.082 14.5842 76.6867 13.3029 77.8961 12.3681C79.1055 11.4332 80.766 10.9658 82.8775 10.9658C84.7962 10.9658 86.3063 11.3613 87.4079 12.1523C88.5094 12.9433 89.1206 14.0449 89.2416 15.4602L85.8618 15.7119C85.6461 14.3685 84.5903 13.6984 82.6978 13.6984C81.6681 13.6984 80.8706 13.8912 80.3051 14.2737C79.7429 14.6561 79.4618 15.1595 79.4618 15.7838C79.4618 16.48 79.7919 16.9834 80.4522 17.2939C81.1125 17.6044 82.1225 17.9051 83.4888 18.1928C84.7832 18.4804 85.8389 18.7681 86.6528 19.0557C87.4667 19.3433 88.1695 19.8173 88.7578 20.4743C89.3462 21.1346 89.6371 22.0138 89.6371 23.1186C89.6371 24.7726 88.9964 26.1258 87.7151 27.1815C86.4338 28.2373 84.6786 28.7636 82.4461 28.7636C80.3836 28.7636 78.7721 28.3027 77.6118 27.3777L77.6085 27.3809Z" fill="#002744"/>
<path d="M96.3044 27.6852C95.5003 26.9661 95.0983 26.0084 95.0983 24.8088V13.8425H91.8623V11.3257H95.0983V7.90989L98.478 6.47168V11.3257H102.613V13.8425H98.478V23.874C98.478 24.5212 98.6382 25.018 98.9618 25.3677C99.2854 25.7142 99.7593 25.8875 100.38 25.8875C100.933 25.8875 101.59 25.7665 102.358 25.5279V28.4043C101.279 28.6429 100.344 28.7639 99.5534 28.7639C98.1871 28.7639 97.1019 28.4043 96.2978 27.6852H96.3044Z" fill="#002744"/>
<path d="M106.624 26.3742C105.127 24.7791 104.375 22.6185 104.375 19.8859C104.375 17.1533 105.124 14.9536 106.624 13.3585C108.121 11.7634 110.154 10.9658 112.717 10.9658C115.279 10.9658 117.312 11.7634 118.813 13.3585C120.31 14.9536 121.061 17.1272 121.061 19.8859C121.061 22.6447 120.313 24.7824 118.813 26.3742C117.316 27.9693 115.282 28.7668 112.717 28.7668C110.151 28.7668 108.121 27.9693 106.624 26.3742ZM116.332 24.4326C117.182 23.367 117.61 21.8504 117.61 19.8827C117.61 17.9149 117.185 16.3656 116.332 15.2968C115.482 14.2312 114.276 13.6984 112.72 13.6984C111.164 13.6984 109.958 14.2312 109.108 15.2968C108.258 16.3623 107.83 17.8921 107.83 19.8827C107.83 21.8733 108.255 23.3638 109.108 24.4326C109.958 25.4982 111.164 26.031 112.72 26.031C114.276 26.031 115.482 25.4982 116.332 24.4326Z" fill="#002744"/>
</g>
</g>
<defs>
<clipPath id="clip0_1022_104">
<rect width="122" height="32" fill="white"/>
</clipPath>
</defs>
</svg>
