<svg width="111" height="28" viewBox="0 0 111 28" fill="none" xmlns="http://www.w3.org/2000/svg">
<g clip-path="url(#clip0_55_781)">
<path d="M27.2801 10.9504C27.101 10.781 27.101 10.5018 27.2801 10.3325C28.2465 9.41993 28.7909 8.36046 28.7909 7.28211C28.7909 3.60548 22.4608 0.618824 14.5568 0.564941C14.4392 0.564941 14.3426 0.66011 14.3426 0.779073V6.65231C14.3426 6.97141 14.0872 7.23102 13.7681 7.23802C8.69963 7.35908 4.30083 8.72575 1.92579 10.6411C0.701177 11.6292 0 12.7761 0 14C0 15.0777 0.544427 16.1371 1.51082 17.0503C1.68996 17.2197 1.68996 17.4989 1.51082 17.6682C0.544427 18.58 0 19.6402 0 20.7179C0 24.3952 6.33019 27.3818 14.2342 27.435C14.3517 27.435 14.4483 27.3399 14.4483 27.2209V21.3477C14.4483 21.0048 14.6757 20.7696 15.0179 20.7619C20.0892 20.6416 24.4894 19.2749 26.8652 17.3589C28.0898 16.3708 28.7909 15.2239 28.7909 14C28.7909 12.9223 28.2465 11.8636 27.2801 10.9504ZM26.2556 11.0371C23.7924 12.7047 19.6994 13.8265 15.0473 13.9377C14.689 13.9461 14.4483 13.7103 14.4483 13.3513V7.9308C14.4483 7.6019 14.7177 7.33599 15.0466 7.34439C19.6966 7.45495 23.7812 8.57669 26.2514 10.2429C26.5733 10.4598 26.5775 10.8202 26.2556 11.0371ZM14.3419 14.6494V20.0699C14.3419 20.4289 14.1019 20.6647 13.7429 20.6563C9.09081 20.5457 4.99781 19.4233 2.53389 17.7557C2.2155 17.5402 2.2155 17.1798 2.53389 16.9643C4.99711 15.2967 9.09011 14.1742 13.7429 14.0637C14.1012 14.0553 14.3419 14.2904 14.3419 14.6494Z" fill="black"/>
<path d="M40.0218 24.0811H36.7363C36.5047 24.0811 36.3164 23.8929 36.3164 23.6613V4.35298C36.3164 4.12135 36.5047 3.93311 36.7363 3.93311H43.823C48.4534 3.93311 51.3435 6.12201 51.3435 10.3032C51.3435 14.4844 48.4534 16.6733 43.823 16.6733H41.4213C40.8804 16.6733 40.4416 17.1121 40.4416 17.653V23.6613C40.4416 23.8929 40.2534 24.0811 40.0218 24.0811ZM43.5983 13.1653C46.0119 13.1653 47.2463 12.0989 47.2463 10.3032C47.2463 8.50755 46.0119 7.4411 43.5983 7.4411H41.4213C40.8804 7.4411 40.4416 7.87986 40.4416 8.42078V12.1856C40.4416 12.7266 40.8804 13.1653 41.4213 13.1653H43.5983Z" fill="black"/>
<path d="M75.0831 12.8226C75.0831 12.9891 74.939 13.1179 74.7731 13.1011C74.4631 13.0689 74.1818 13.0528 73.82 13.0528C71.7718 13.0528 70.2001 14.3159 70.2001 16.5888V23.8014C70.2001 23.9561 70.0748 24.0813 69.9202 24.0813H66.5514C66.3968 24.0813 66.2715 23.9561 66.2715 23.8014V9.60079C66.2715 9.44614 66.3968 9.32088 66.5514 9.32088H69.9202C70.0748 9.32088 70.2001 9.44614 70.2001 9.60079V10.132C70.2001 10.5049 70.6465 10.689 70.9153 10.4301C71.6829 9.69106 72.8102 9.23621 74.1286 9.23621C74.4036 9.23621 74.6241 9.2502 74.827 9.2677C74.9719 9.28029 75.0824 9.40135 75.0824 9.54691L75.0831 12.8226Z" fill="black"/>
<path d="M79.7698 24.0811H76.401C76.2464 24.0811 76.1211 23.9559 76.1211 23.8012V4.21302C76.1211 4.05837 76.2464 3.93311 76.401 3.93311H79.7698C79.9244 3.93311 80.0497 4.05837 80.0497 4.21302V23.8012C80.0497 23.9559 79.9244 24.0811 79.7698 24.0811Z" fill="black"/>
<path d="M88.3844 24.3844C84.1193 24.3844 81.1445 21.2977 81.1445 16.6959C81.1445 12.0942 84.1193 9.03552 88.3844 9.03552C92.6496 9.03552 95.6243 12.1222 95.6243 16.6959C95.6243 21.2697 92.6496 24.3844 88.3844 24.3844ZM88.3844 21.129C90.4327 21.129 91.6958 19.5014 91.6958 16.6952C91.6958 13.8891 90.4334 12.2894 88.3844 12.2894C86.3355 12.2894 85.0451 13.9171 85.0451 16.6952C85.0451 19.4734 86.3362 21.129 88.3844 21.129Z" fill="black"/>
<path d="M63.9712 20.2032V14.1705C63.9712 10.7471 61.7263 9.03552 57.9944 9.03552C54.9021 9.03552 52.7916 10.6065 51.8741 12.6897C51.8028 12.8507 51.9014 13.0368 52.0736 13.0732L55.2226 13.7429C55.3513 13.7702 55.4794 13.703 55.5361 13.584C55.9461 12.717 56.6683 12.2908 57.8537 12.2908C59.2351 12.2908 59.909 12.8563 60.0811 13.7996C60.1413 14.2936 59.9734 14.5896 59.3289 14.7163L56.4507 15.2656C53.4759 15.7988 51.1191 17.0332 51.1191 19.98C51.1191 22.5895 53.252 24.3298 56.1421 24.3298C57.802 24.3298 59.1315 23.8967 60.0783 23.1192C60.3079 22.931 60.6515 22.959 60.8467 23.1829C61.5843 24.0289 62.925 24.3641 64.932 24.1108C65.0719 24.0933 65.1776 23.9736 65.1776 23.833V21.4348C65.1776 21.2774 65.0475 21.1507 64.89 21.1556C64.2322 21.1759 63.9705 20.8981 63.9705 20.2053L63.9712 20.2032ZM60.1266 18.8282C60.1266 20.4838 58.5829 21.3537 56.9279 21.3537C55.7495 21.3537 54.9917 20.7645 54.9917 19.754C54.9917 18.5755 55.9454 18.1543 57.2365 17.9017L59.4555 17.4496C59.8026 17.3789 60.1273 17.6441 60.1273 17.9982L60.1266 18.8282Z" fill="black"/>
<path d="M108.867 20.2032V14.1705C108.867 10.7471 106.623 9.03552 102.891 9.03552C99.7986 9.03552 97.688 10.6065 96.7706 12.6897C96.6992 12.8507 96.7979 13.0368 96.9701 13.0732L100.119 13.7429C100.248 13.7702 100.376 13.703 100.432 13.584C100.842 12.717 101.565 12.2908 102.75 12.2908C104.131 12.2908 104.805 12.8563 104.977 13.7996C105.038 14.2936 104.87 14.5896 104.225 14.7163L101.347 15.2656C98.3724 15.7988 96.0156 17.0332 96.0156 19.98C96.0156 22.5895 98.1485 24.3298 101.038 24.3298C102.698 24.3298 104.028 23.8967 104.975 23.1192C105.204 22.931 105.548 22.959 105.743 23.1829C106.481 24.0289 107.821 24.3641 109.828 24.1108C109.968 24.0933 110.074 23.9736 110.074 23.833V21.4348C110.074 21.2774 109.944 21.1507 109.786 21.1556C109.128 21.1759 108.867 20.8981 108.867 20.2053V20.2032ZM105.024 18.8282C105.024 20.4838 103.48 21.3537 101.825 21.3537C100.646 21.3537 99.8888 20.7645 99.8888 19.754C99.8888 18.5755 100.842 18.1543 102.134 17.9017L104.353 17.4496C104.7 17.3789 105.024 17.6441 105.024 17.9982V18.8282Z" fill="black"/>
</g>
<defs>
<clipPath id="clip0_55_781">
<rect width="111" height="28" fill="white"/>
</clipPath>
</defs>
</svg>
