<svg width="118" height="60" viewBox="0 0 118 60" fill="none" xmlns="http://www.w3.org/2000/svg">
<path d="M0.899902 9.1V59.4H106.6L115.1 50.3L9.3999 50.2V0.5L0.899902 9.1Z" fill="white"/>
<path d="M18.5 4.7002H27.5C35.1 4.7002 42 7.30019 42 17.3002C42 24.3002 38.1 28.7002 30.4 28.9002L27.4 29.3002V41.8002H18.5V4.7002ZM27.4 21.5002H28L29 21.4002C31.7 21.4002 34 20.9002 34 17.3002C34 13.7002 32.4 13.3002 29.1 13.1002H27.5L27.4 21.5002Z" fill="white"/>
<path d="M55 12.0002V19.7002H64.5999V27.0002H54V34.7002H63.5999V41.7002H45.2V4.7002H63.6999V12.0002H55Z" fill="white"/>
<path d="M95.3 41.7002H85.6L78 29.4002H77.4V41.7002H68.7V4.7002H77.8C85.4 4.7002 91.8 7.30019 91.8 17.3002C91.8 21.5002 90.5 25.0002 87.1 27.2002L95.3 41.7002ZM77.5 21.4002H78.3L79.8 21.3002C82.6 21.1002 84 20.2002 84 17.2002C84 14.2002 82.3 13.3002 79.8 13.1002H77.5V21.4002Z" fill="white"/>
<path d="M106.5 41.7002H97.6001V4.7002H106.5V41.7002Z" fill="white"/>
</svg>
