<svg width="94" height="17" viewBox="0 0 94 17" fill="none" xmlns="http://www.w3.org/2000/svg">
<g clip-path="url(#clip0_884_575)">
<path d="M6.85 11.5064H4.3989L3.41407 16.7752H0L2.97637 1.01367H8.68834C9.7097 1.01367 10.5705 1.23884 11.2708 1.68917C11.9857 2.12449 12.5037 2.71743 12.8247 3.46798C13.1457 4.20352 13.2259 5.01411 13.0654 5.89977L12.8684 6.98056C12.7079 7.91125 12.3505 8.71437 11.7961 9.38985C11.2416 10.0653 10.5413 10.5907 9.69509 10.966C8.84884 11.3263 7.90052 11.5064 6.85 11.5064ZM7.98804 4.07592H5.82142L4.98979 8.44413H7.15639C7.72541 8.44413 8.22151 8.28649 8.64458 7.97127C9.08231 7.65605 9.34494 7.20575 9.43246 6.62029L9.5419 5.92228C9.62942 5.38188 9.52729 4.93906 9.23551 4.59381C8.94366 4.24855 8.5279 4.07592 7.98804 4.07592Z" fill="#969696"/>
<path d="M16.8305 3.73775C16.2323 3.73775 15.7509 3.55762 15.3861 3.19735C15.0213 2.82208 14.8973 2.33422 15.014 1.73378C15.1162 1.16336 15.3788 0.735544 15.8019 0.450332C16.2396 0.150111 16.7357 0 17.2901 0C17.8737 0 18.3479 0.180133 18.7126 0.540399C19.0774 0.885654 19.2087 1.3585 19.1065 1.95894C19.0044 2.51435 18.7345 2.94967 18.2968 3.2649C17.8737 3.58014 17.3849 3.73775 16.8305 3.73775ZM12.541 16.7748L14.6858 5.38146H18.0998L15.9551 16.7748H12.541Z" fill="#969696"/>
<path d="M25.9544 14.0049L25.4073 16.887H23.5032C22.5549 16.887 21.7598 16.7594 21.1178 16.5042C20.4904 16.234 20.0527 15.7837 19.8047 15.1533C19.5567 14.5228 19.5348 13.6596 19.7391 12.5638L20.5488 8.33071H18.9512L19.4983 5.38106H21.096L21.7087 2.13867H25.1228L24.51 5.38106H27.5739L27.0268 8.33071H23.9629L23.1531 12.5863C23.0802 13.0067 23.1239 13.3519 23.2844 13.6221C23.4595 13.8773 23.7951 14.0049 24.2911 14.0049H25.9544Z" fill="#969696"/>
<path d="M32.0371 13.9377C32.3872 13.9377 32.6645 13.8552 32.8687 13.69C33.0876 13.5099 33.2699 13.2697 33.4158 12.9695H36.8737C36.5527 14.1253 35.9545 15.086 35.0791 15.8516C34.2183 16.6172 33.1314 17 31.8182 17C30.0966 17 28.8418 16.4896 28.054 15.4688C27.2661 14.4331 27.0254 13.0671 27.3318 11.3708L27.5944 9.90723C27.7841 8.82643 28.1415 7.94079 28.6668 7.25026C29.2066 6.54476 29.8632 6.01939 30.6364 5.67414C31.4243 5.32888 32.2778 5.15625 33.197 5.15625C34.0578 5.15625 34.8165 5.32888 35.473 5.67414C36.1296 6.01939 36.6329 6.50725 36.9831 7.13774C37.3333 7.75314 37.4719 8.48871 37.3989 9.34434H34.0505C34.0651 8.99911 33.9702 8.72887 33.766 8.53376C33.5763 8.32355 33.2699 8.21848 32.8468 8.21848C32.3362 8.21848 31.9423 8.39116 31.665 8.73639C31.3878 9.06665 31.169 9.62954 31.0085 10.4251L30.8115 11.4609C30.6364 12.3765 30.6729 13.022 30.921 13.3973C31.1836 13.7576 31.5557 13.9377 32.0371 13.9377Z" fill="#969696"/>
<path d="M41.1279 16.775H37.7139L40.8215 0.337891H44.2356L42.9225 7.22795C43.4331 6.49241 43.9876 5.96703 44.5858 5.6518C45.1986 5.32155 45.8405 5.15643 46.5116 5.15643C47.2411 5.15643 47.8321 5.35158 48.2844 5.74186C48.7512 6.11714 49.0722 6.61249 49.2473 7.22795C49.4369 7.84342 49.4588 8.51891 49.313 9.25442L47.8904 16.775H44.4763L45.7019 10.2902C45.8332 9.58467 45.8113 9.06683 45.6362 8.73657C45.4758 8.39134 45.1183 8.21866 44.5639 8.21866C44.2429 8.21866 43.9219 8.30124 43.6009 8.46634C43.2945 8.6315 43.0246 8.90167 42.7912 9.27697C42.5578 9.63724 42.3827 10.1251 42.2659 10.7405L41.1279 16.775Z" fill="#969696"/>
<path d="M54.1642 12.677C54.0912 13.1273 54.1058 13.435 54.2079 13.6001C54.3101 13.7503 54.5143 13.8253 54.8207 13.8253H55.3897L54.8207 16.8876H53.6608C52.9897 16.8876 52.3915 16.7825 51.8662 16.5723C51.3555 16.3471 50.9835 15.9493 50.7501 15.3789C50.5312 14.7935 50.5167 13.9679 50.7063 12.9022L53.0918 0.337891H56.5059L54.1642 12.677Z" fill="#969696"/>
<path d="M61.4391 17C60.4178 17 59.5132 16.7598 58.7254 16.2794C57.9521 15.7991 57.3904 15.1386 57.0403 14.2979C56.6901 13.4423 56.6317 12.4591 56.8652 11.3483L57.2153 9.68205C57.4342 8.67637 57.8135 7.84324 58.3533 7.18272C58.9077 6.50725 59.5789 6.00437 60.3668 5.67414C61.1692 5.32888 62.03 5.15625 62.9492 5.15625C63.9706 5.15625 64.8604 5.39643 65.6194 5.87678C66.3924 6.34212 66.9614 6.98761 67.326 7.81323C67.6912 8.6238 67.7712 9.562 67.5667 10.6278L67.2168 12.4967C67.0415 13.4123 66.6769 14.2079 66.1224 14.8834C65.568 15.5589 64.8827 16.0843 64.0652 16.4596C63.2629 16.8198 62.3875 17 61.4391 17ZM62.6428 8.21848C62.103 8.21848 61.6507 8.38364 61.2859 8.7139C60.9358 9.02912 60.7023 9.47942 60.5856 10.0649L60.2792 11.7311C60.1625 12.3616 60.2209 12.8869 60.4543 13.3072C60.7023 13.7275 61.1254 13.9377 61.7236 13.9377C62.3802 13.9377 62.869 13.735 63.19 13.3298C63.5254 12.9245 63.7515 12.3916 63.8683 11.7311L64.1529 10.1775C64.2697 9.59201 64.1821 9.11915 63.8899 8.75888C63.5984 8.39861 63.1827 8.21848 62.6428 8.21848Z" fill="#969696"/>
<path d="M74.4442 8.21848C73.8313 8.21848 73.3721 8.4587 73.0653 8.93902C72.7592 9.40436 72.5477 9.94476 72.4308 10.5602L72.2339 11.596C72.1171 12.1964 72.1831 12.7368 72.4308 13.2172C72.6792 13.6975 73.1022 13.9377 73.7004 13.9377C74.3134 13.9377 74.8094 13.7201 75.1886 13.2847C75.5677 12.8344 75.8085 12.324 75.9107 11.7536L76.1514 10.4927C76.2683 9.86218 76.166 9.3293 75.8453 8.89397C75.5239 8.44366 75.0571 8.21848 74.4442 8.21848ZM74.9694 16.7748L75.254 15.2212C74.8894 15.7616 74.4226 16.1968 73.8535 16.5271C73.299 16.8423 72.6645 17 71.9494 17C71.0596 17 70.3444 16.7598 69.8045 16.2794C69.2793 15.7841 68.9223 15.1386 68.7324 14.343C68.5425 13.5474 68.5279 12.7068 68.6886 11.8212L68.9509 10.3576C69.1262 9.41188 69.4254 8.54874 69.8484 7.76818C70.2714 6.97258 70.8258 6.34212 71.5118 5.87678C72.1977 5.39643 73.0075 5.15625 73.9412 5.15625C74.6557 5.15625 75.254 5.34389 75.7354 5.71917C76.2315 6.07943 76.5821 6.55228 76.7859 7.13774L77.1143 5.38142H80.5281L78.3839 16.7748H74.9694Z" fill="#969696"/>
<path d="M86.9309 8.21866C86.3326 8.21866 85.8804 8.45888 85.5743 8.9392C85.2681 9.40454 85.056 9.94494 84.9398 10.5604L84.7429 11.5962C84.626 12.1966 84.6914 12.737 84.9398 13.2174C85.1875 13.6977 85.6105 13.9379 86.2088 13.9379C86.8363 13.9379 87.3323 13.7202 87.6969 13.2849C88.0767 12.8345 88.3244 12.2941 88.4413 11.6637L88.6597 10.4929C88.7766 9.86236 88.6744 9.32948 88.3536 8.89415C88.0329 8.44384 87.5584 8.21866 86.9309 8.21866ZM87.4784 16.775L87.7629 15.2213C87.3977 15.7618 86.9385 16.197 86.3841 16.5273C85.8296 16.8425 85.1875 17.0001 84.4583 17.0001C83.5679 17.0001 82.8533 16.76 82.3135 16.2796C81.7882 15.7842 81.4306 15.1388 81.2407 14.3432C81.0515 13.5476 81.0369 12.707 81.1969 11.8214L81.4599 10.3578C81.6352 9.41206 81.9343 8.54892 82.3573 7.76836C82.7803 6.97276 83.3348 6.3423 84.0201 5.87696C84.706 5.39661 85.5158 5.15643 86.4495 5.15643C87.1792 5.15643 87.7845 5.34407 88.266 5.71935C88.7474 6.07961 89.0904 6.55998 89.2949 7.16041L90.5861 0.337891H94L90.8922 16.775H87.4784Z" fill="#969696"/>
</g>
<defs>
<clipPath id="clip0_884_575">
<rect width="94" height="17" fill="white"/>
</clipPath>
</defs>
</svg>
