<svg width="100" height="100" viewBox="0 0 100 100" fill="none" xmlns="http://www.w3.org/2000/svg">
<path d="M48.9744 63.3337V83.8462C48.9744 83.8462 61.4051 81.5898 65.3846 75.6412C69.8154 68.9951 65.3846 55.1286 65.3846 55.1286M48.9744 63.3337C54.7045 61.1529 60.2019 58.4042 65.3846 55.1286M48.9744 63.3337L36.6667 51.0261M65.3846 55.1286C86.8 40.7698 90 21.1598 90 10.001C80.9853 9.9451 72.1062 12.1964 64.2072 16.5408C56.3082 20.8852 49.652 27.1782 44.8718 34.8212M36.6667 51.0261C38.8498 45.3623 41.5988 39.9332 44.8718 34.8212M36.6667 51.0261H16.1539C16.1539 51.0261 18.4103 38.5955 24.359 34.6161C31.0051 30.1854 44.8718 34.8212 44.8718 34.8212M18.2051 69.4875C12.0513 74.6566 10 90 10 90C10 90 25.3436 87.9487 30.5128 81.795C33.4256 78.3489 33.3846 73.0566 30.1436 69.8567C28.549 68.3347 26.4484 67.4552 24.245 67.3871C22.0417 67.3189 19.8908 68.0669 18.2051 69.4875Z" stroke="url(#paint0_linear_784_2856)" stroke-width="8" stroke-linecap="round" stroke-linejoin="round"/>
<defs>
<linearGradient id="paint0_linear_784_2856" x1="-26.7648" y1="50.2687" x2="48.5756" y2="-24.7127" gradientUnits="userSpaceOnUse">
<stop stop-color="#FF4880"/>
<stop offset="0.31" stop-color="#FF8000"/>
<stop offset="0.65" stop-color="#FFF830"/>
<stop offset="0.82" stop-color="#00FFAE"/>
<stop offset="1" stop-color="#00B0FF"/>
</linearGradient>
</defs>
</svg>
