<svg width="1273" height="69" viewBox="0 0 1273 69" fill="none" xmlns="http://www.w3.org/2000/svg">
<path d="M0.000214547 45.7602H18.5682C18.8615 47.5789 19.7122 49.1629 21.1202 50.5122C22.5282 51.8615 24.4055 52.9175 26.7522 53.6802C29.1575 54.3842 31.9735 54.7362 35.2002 54.7362C39.6589 54.7362 43.1789 54.1789 45.7602 53.0642C48.3416 51.8909 49.6322 50.1895 49.6322 47.9602C49.6322 46.2589 48.8989 44.9389 47.4322 44.0002C45.9655 43.0615 43.1495 42.3869 38.9842 41.9762L26.6642 40.8322C17.5709 40.0109 10.9709 37.9575 6.86422 34.6722C2.75755 31.3282 0.704215 26.8402 0.704215 21.2082C0.704215 16.6322 2.02421 12.7602 4.66421 9.5922C7.36288 6.4242 11.1175 4.0482 15.9282 2.4642C20.7975 0.821534 26.4589 0.000200272 32.9122 0.000200272C39.2482 0.000200272 44.8802 0.909534 49.8082 2.7282C54.7362 4.4882 58.6376 7.01087 61.5122 10.2962C64.4455 13.5815 66.0296 17.3949 66.2642 21.7362H47.7842C47.5496 20.1522 46.7869 18.8029 45.4962 17.6882C44.2642 16.5149 42.5629 15.6349 40.3922 15.0482C38.2216 14.4029 35.6109 14.0802 32.5602 14.0802C28.4535 14.0802 25.1975 14.6375 22.7922 15.7522C20.3869 16.8082 19.1842 18.3922 19.1842 20.5042C19.1842 22.0295 19.8882 23.2615 21.2962 24.2002C22.7629 25.1389 25.3735 25.7842 29.1282 26.1362L42.2402 27.4562C48.5176 28.0429 53.5336 29.0695 57.2882 30.5362C61.0429 31.9442 63.7709 33.9095 65.4722 36.4322C67.1735 38.9549 68.0242 42.0935 68.0242 45.8482C68.0242 50.4829 66.6455 54.5309 63.8882 57.9922C61.1309 61.3949 57.2589 64.0642 52.2722 66.0002C47.2856 67.8775 41.4775 68.8162 34.8482 68.8162C28.0429 68.8162 22.0295 67.8775 16.8082 66.0002C11.6455 64.0642 7.59755 61.3655 4.66421 57.9042C1.73088 54.3842 0.176214 50.3362 0.000214547 45.7602ZM99.916 9.4162H118.22V67.4082H99.916V9.4162ZM74.748 1.4082H143.388V17.6002H74.748V1.4082ZM157.929 54.7362V40.0402H203.425V54.7362H157.929ZM193.041 1.4082L223.049 67.4082H203.601L178.433 9.1522H183.713L158.457 67.4082H139.009L169.017 1.4082H193.041ZM246.284 30.2722H270.308C273.241 30.2722 275.529 29.5975 277.172 28.2482C278.815 26.8989 279.636 25.0215 279.636 22.6162C279.636 20.1522 278.815 18.2749 277.172 16.9842C275.529 15.6349 273.241 14.9602 270.308 14.9602H243.732L251.916 6.2482V67.4082H233.7V1.4082H272.86C277.905 1.4082 282.305 2.31753 286.06 4.1362C289.815 5.8962 292.748 8.3602 294.86 11.5282C296.972 14.6375 298.028 18.3335 298.028 22.6162C298.028 26.7815 296.972 30.4482 294.86 33.6162C292.748 36.7842 289.815 39.2482 286.06 41.0082C282.305 42.7682 277.905 43.6482 272.86 43.6482H246.284V30.2722ZM256.14 36.5202H276.644L300.316 67.4082H279.196L256.14 36.5202ZM331.655 9.4162H349.959V67.4082H331.655V9.4162ZM306.487 1.4082H375.127V17.6002H306.487V1.4082ZM404.727 37.9282C404.727 40.9202 405.284 43.5309 406.399 45.7602C407.572 47.9309 409.273 49.6029 411.503 50.7762C413.791 51.9495 416.577 52.5362 419.863 52.5362C423.207 52.5362 425.993 51.9495 428.223 50.7762C430.452 49.6029 432.124 47.9309 433.239 45.7602C434.353 43.5309 434.911 40.9202 434.911 37.9282V1.4082H453.215V38.8082C453.215 44.8509 451.807 50.1309 448.991 54.6482C446.233 59.1069 442.361 62.5975 437.375 65.1202C432.388 67.5842 426.551 68.8162 419.863 68.8162C413.233 68.8162 407.396 67.5842 402.351 65.1202C397.364 62.5975 393.463 59.1069 390.647 54.6482C387.889 50.1309 386.511 44.8509 386.511 38.8082V1.4082H404.727V37.9282ZM506.096 1.4082C511.611 1.4082 516.363 2.34686 520.352 4.2242C524.4 6.10153 527.48 8.77087 529.592 12.2322C531.704 15.6349 532.76 19.6242 532.76 24.2002C532.76 28.7175 531.704 32.7069 529.592 36.1682C527.48 39.5709 524.4 42.2109 520.352 44.0882C516.363 45.9655 511.611 46.9042 506.096 46.9042H477.496V32.2962H504.952C507.886 32.2962 510.174 31.5922 511.816 30.1842C513.459 28.7175 514.28 26.7229 514.28 24.2002C514.28 21.6189 513.459 19.6242 511.816 18.2162C510.174 16.7495 507.886 16.0162 504.952 16.0162H479.08L487.264 7.5682V67.4082H469.048V1.4082H506.096ZM568.684 67.4082V1.4082H586.812V52.8882L581.972 49.1042L619.372 1.4082H638.644L585.14 67.4082H568.684ZM600.188 35.9042L613.564 24.8162L639.524 67.4082H618.844L600.188 35.9042ZM662.503 54.7362V40.0402H707.999V54.7362H662.503ZM697.615 1.4082L727.623 67.4082H708.175L683.007 9.1522H688.287L663.031 67.4082H643.583L673.591 1.4082H697.615ZM750.857 30.2722H774.881C777.815 30.2722 780.103 29.5975 781.745 28.2482C783.388 26.8989 784.209 25.0215 784.209 22.6162C784.209 20.1522 783.388 18.2749 781.745 16.9842C780.103 15.6349 777.815 14.9602 774.881 14.9602H748.305L756.489 6.2482V67.4082H738.273V1.4082H777.433C782.479 1.4082 786.879 2.31753 790.633 4.1362C794.388 5.8962 797.321 8.3602 799.433 11.5282C801.545 14.6375 802.601 18.3335 802.601 22.6162C802.601 26.7815 801.545 30.4482 799.433 33.6162C797.321 36.7842 794.388 39.2482 790.633 41.0082C786.879 42.7682 782.479 43.6482 777.433 43.6482H750.857V30.2722ZM760.713 36.5202H781.217L804.889 67.4082H783.769L760.713 36.5202ZM835.655 1.4082V59.3122L827.471 51.2162H876.839V67.4082H817.439V1.4082H835.655ZM884.074 45.7602H902.642C902.935 47.5789 903.786 49.1629 905.194 50.5122C906.602 51.8615 908.479 52.9175 910.826 53.6802C913.231 54.3842 916.047 54.7362 919.274 54.7362C923.732 54.7362 927.252 54.1789 929.834 53.0642C932.415 51.8909 933.706 50.1895 933.706 47.9602C933.706 46.2589 932.972 44.9389 931.506 44.0002C930.039 43.0615 927.223 42.3869 923.058 41.9762L910.738 40.8322C901.644 40.0109 895.044 37.9575 890.938 34.6722C886.831 31.3282 884.778 26.8402 884.778 21.2082C884.778 16.6322 886.098 12.7602 888.738 9.5922C891.436 6.4242 895.191 4.0482 900.002 2.4642C904.871 0.821534 910.532 0.000200272 916.986 0.000200272C923.322 0.000200272 928.954 0.909534 933.882 2.7282C938.81 4.4882 942.711 7.01087 945.586 10.2962C948.519 13.5815 950.103 17.3949 950.338 21.7362H931.858C931.623 20.1522 930.86 18.8029 929.57 17.6882C928.338 16.5149 926.636 15.6349 924.466 15.0482C922.295 14.4029 919.684 14.0802 916.634 14.0802C912.527 14.0802 909.271 14.6375 906.866 15.7522C904.46 16.8082 903.258 18.3922 903.258 20.5042C903.258 22.0295 903.962 23.2615 905.37 24.2002C906.836 25.1389 909.447 25.7842 913.202 26.1362L926.314 27.4562C932.591 28.0429 937.607 29.0695 941.362 30.5362C945.116 31.9442 947.844 33.9095 949.546 36.4322C951.247 38.9549 952.098 42.0935 952.098 45.8482C952.098 50.4829 950.719 54.5309 947.962 57.9922C945.204 61.3949 941.332 64.0642 936.346 66.0002C931.359 67.8775 925.551 68.8162 918.922 68.8162C912.116 68.8162 906.103 67.8775 900.882 66.0002C895.719 64.0642 891.671 61.3655 888.738 57.9042C885.804 54.3842 884.25 50.3362 884.074 45.7602ZM978.214 30.2722H1002.24C1005.17 30.2722 1007.46 29.5975 1009.1 28.2482C1010.74 26.8989 1011.57 25.0215 1011.57 22.6162C1011.57 20.1522 1010.74 18.2749 1009.1 16.9842C1007.46 15.6349 1005.17 14.9602 1002.24 14.9602H975.662L983.846 6.2482V67.4082H965.63V1.4082H1004.79C1009.84 1.4082 1014.24 2.31753 1017.99 4.1362C1021.74 5.8962 1024.68 8.3602 1026.79 11.5282C1028.9 14.6375 1029.96 18.3335 1029.96 22.6162C1029.96 26.7815 1028.9 30.4482 1026.79 33.6162C1024.68 36.7842 1021.74 39.2482 1017.99 41.0082C1014.24 42.7682 1009.84 43.6482 1004.79 43.6482H978.214V30.2722ZM988.07 36.5202H1008.57L1032.25 67.4082H1011.13L988.07 36.5202ZM1061.79 37.9282C1061.79 40.9202 1062.34 43.5309 1063.46 45.7602C1064.63 47.9309 1066.33 49.6029 1068.56 50.7762C1070.85 51.9495 1073.64 52.5362 1076.92 52.5362C1080.27 52.5362 1083.05 51.9495 1085.28 50.7762C1087.51 49.6029 1089.18 47.9309 1090.3 45.7602C1091.41 43.5309 1091.97 40.9202 1091.97 37.9282V1.4082H1110.28V38.8082C1110.28 44.8509 1108.87 50.1309 1106.05 54.6482C1103.29 59.1069 1099.42 62.5975 1094.44 65.1202C1089.45 67.5842 1083.61 68.8162 1076.92 68.8162C1070.29 68.8162 1064.46 67.5842 1059.41 65.1202C1054.42 62.5975 1050.52 59.1069 1047.71 54.6482C1044.95 50.1309 1043.57 44.8509 1043.57 38.8082V1.4082H1061.79V37.9282ZM1126.11 1.4082H1144.33V67.4082H1126.11V1.4082ZM1178.03 1.4082H1196.33V67.4082H1178.03V1.4082ZM1136.32 25.7842H1185.6V41.9762H1136.32V25.7842ZM1269.5 27.8082V41.0082H1221.19V27.8082H1269.5ZM1233.6 34.4082L1229.29 60.8962L1221.9 52.6242H1272.41V67.4082H1211.07L1216.09 34.4082L1211.07 1.4082H1271.97V16.1922H1221.9L1229.29 7.9202L1233.6 34.4082Z" fill="white"/>
</svg>
