<svg width="384" height="83" viewBox="0 0 384 83" fill="none" xmlns="http://www.w3.org/2000/svg">
<path d="M46.0448 24.9601H56.1728C56.3328 25.9521 56.7968 26.8161 57.5648 27.5521C58.3328 28.2881 59.3568 28.8641 60.6368 29.2801C61.9488 29.6641 63.4848 29.8561 65.2448 29.8561C67.6768 29.8561 69.5968 29.5521 71.0048 28.9441C72.4128 28.3041 73.1168 27.3761 73.1168 26.1601C73.1168 25.2321 72.7168 24.5121 71.9168 24.0001C71.1168 23.4881 69.5808 23.1201 67.3088 22.8961L60.5888 22.2721C55.6288 21.8241 52.0288 20.7041 49.7888 18.9121C47.5488 17.0881 46.4288 14.6401 46.4288 11.5681C46.4288 9.07206 47.1488 6.96006 48.5888 5.23207C50.0608 3.50407 52.1088 2.20807 54.7328 1.34406C57.3888 0.448065 60.4768 6.48499e-05 63.9968 6.48499e-05C67.4528 6.48499e-05 70.5248 0.496065 73.2128 1.48807C75.9008 2.44806 78.0288 3.82406 79.5968 5.61606C81.1968 7.40806 82.0608 9.48806 82.1888 11.8561H72.1088C71.9808 10.9921 71.5648 10.2561 70.8608 9.64807C70.1888 9.00807 69.2608 8.52806 68.0768 8.20807C66.8928 7.85607 65.4688 7.68007 63.8048 7.68007C61.5648 7.68007 59.7888 7.98407 58.4768 8.59207C57.1648 9.16807 56.5088 10.0321 56.5088 11.1841C56.5088 12.0161 56.8928 12.6881 57.6608 13.2001C58.4608 13.7121 59.8848 14.0641 61.9328 14.2561L69.0848 14.9761C72.5088 15.2961 75.2448 15.8561 77.2928 16.6561C79.3408 17.4241 80.8288 18.4961 81.7568 19.8721C82.6848 21.2481 83.1488 22.9601 83.1488 25.0081C83.1488 27.5361 82.3968 29.7441 80.8928 31.6321C79.3888 33.4881 77.2768 34.9441 74.5568 36.0001C71.8368 37.0241 68.6688 37.5361 65.0528 37.5361C61.3408 37.5361 58.0608 37.0241 55.2128 36.0001C52.3968 34.9441 50.1888 33.4721 48.5888 31.5841C46.9888 29.6641 46.1408 27.4561 46.0448 24.9601ZM100.544 5.13606H110.528V36.7681H100.544V5.13606ZM86.8163 0.768064H124.256V9.60006H86.8163V0.768064ZM132.188 29.8561V21.8401H157.004V29.8561H132.188ZM151.34 0.768064L167.708 36.7681H157.1L143.372 4.99206H146.252L132.476 36.7681H121.868L138.236 0.768064H151.34ZM180.381 16.5121H193.485C195.085 16.5121 196.333 16.1441 197.229 15.4081C198.125 14.6721 198.573 13.6481 198.573 12.3361C198.573 10.9921 198.125 9.96807 197.229 9.26407C196.333 8.52807 195.085 8.16007 193.485 8.16007H178.989L183.453 3.40806V36.7681H173.517V0.768064H194.877C197.629 0.768064 200.029 1.26406 202.077 2.25606C204.125 3.21607 205.725 4.56007 206.877 6.28806C208.029 7.98407 208.605 10.0001 208.605 12.3361C208.605 14.6081 208.029 16.6081 206.877 18.3361C205.725 20.0641 204.125 21.4081 202.077 22.3681C200.029 23.3281 197.629 23.8081 194.877 23.8081H180.381V16.5121ZM185.757 19.9201H196.941L209.853 36.7681H198.333L185.757 19.9201ZM226.947 5.13606H236.931V36.7681H226.947V5.13606ZM213.219 0.768064H250.659V9.60006H213.219V0.768064ZM266.805 20.6881C266.805 22.3201 267.109 23.7441 267.717 24.9601C268.357 26.1441 269.285 27.0561 270.501 27.6961C271.749 28.3361 273.269 28.6561 275.061 28.6561C276.885 28.6561 278.405 28.3361 279.621 27.6961C280.837 27.0561 281.749 26.1441 282.357 24.9601C282.965 23.7441 283.269 22.3201 283.269 20.6881V0.768064H293.253V21.1681C293.253 24.4641 292.485 27.3441 290.949 29.8081C289.445 32.2401 287.333 34.1441 284.613 35.5201C281.893 36.8641 278.709 37.5361 275.061 37.5361C271.445 37.5361 268.261 36.8641 265.509 35.5201C262.789 34.1441 260.661 32.2401 259.125 29.8081C257.621 27.3441 256.869 24.4641 256.869 21.1681V0.768064H266.805V20.6881ZM322.097 0.768064C325.105 0.768064 327.697 1.28006 329.873 2.30406C332.081 3.32806 333.761 4.78406 334.913 6.67206C336.065 8.52807 336.641 10.7041 336.641 13.2001C336.641 15.6641 336.065 17.8401 334.913 19.7281C333.761 21.5841 332.081 23.0241 329.873 24.0481C327.697 25.0721 325.105 25.5841 322.097 25.5841H306.497V17.6161H321.473C323.073 17.6161 324.321 17.2321 325.217 16.4641C326.113 15.6641 326.561 14.5761 326.561 13.2001C326.561 11.7921 326.113 10.7041 325.217 9.93607C324.321 9.13606 323.073 8.73606 321.473 8.73606H307.361L311.825 4.12807V36.7681H301.889V0.768064H322.097ZM0.000228286 81.7681V45.7681H9.88823V73.8481L7.24823 71.7841L27.6482 45.7681H38.1602L8.97623 81.7681H0.000228286ZM17.1842 64.5841L24.4802 58.5361L38.6402 81.7681H27.3602L17.1842 64.5841ZM51.1739 74.8561V66.8401H75.9899V74.8561H51.1739ZM70.3259 45.7681L86.6939 81.7681H76.0859L62.3579 49.9921H65.2379L51.4619 81.7681H40.8539L57.2219 45.7681H70.3259ZM99.3674 61.5121H112.471C114.071 61.5121 115.319 61.1441 116.215 60.4081C117.111 59.6721 117.559 58.6481 117.559 57.3361C117.559 55.9921 117.111 54.9681 116.215 54.2641C115.319 53.5281 114.071 53.1601 112.471 53.1601H97.9754L102.439 48.4081V81.7681H92.5034V45.7681H113.863C116.615 45.7681 119.015 46.2641 121.063 47.2561C123.111 48.2161 124.711 49.5601 125.863 51.2881C127.015 52.9841 127.591 55.0001 127.591 57.3361C127.591 59.6081 127.015 61.6081 125.863 63.3361C124.711 65.0641 123.111 66.4081 121.063 67.3681C119.015 68.3281 116.615 68.8081 113.863 68.8081H99.3674V61.5121ZM104.743 64.9201H115.927L128.839 81.7681H117.319L104.743 64.9201ZM145.621 45.7681V77.3521L141.157 72.9361H168.085V81.7681H135.685V45.7681H145.621ZM172.031 69.9601H182.159C182.319 70.9521 182.783 71.8161 183.551 72.5521C184.319 73.2881 185.343 73.8641 186.623 74.2801C187.935 74.6641 189.471 74.8561 191.231 74.8561C193.663 74.8561 195.583 74.5521 196.991 73.9441C198.399 73.3041 199.103 72.3761 199.103 71.1601C199.103 70.2321 198.703 69.5121 197.903 69.0001C197.103 68.4881 195.567 68.1201 193.295 67.8961L186.575 67.2721C181.615 66.8241 178.015 65.7041 175.775 63.9121C173.535 62.0881 172.415 59.6401 172.415 56.5681C172.415 54.0721 173.135 51.9601 174.575 50.2321C176.047 48.5041 178.095 47.2081 180.719 46.3441C183.375 45.4481 186.463 45.0001 189.983 45.0001C193.439 45.0001 196.511 45.4961 199.199 46.4881C201.887 47.4481 204.015 48.8241 205.583 50.6161C207.183 52.4081 208.047 54.4881 208.175 56.8561H198.095C197.967 55.9921 197.551 55.2561 196.847 54.6481C196.175 54.0081 195.247 53.5281 194.063 53.2081C192.879 52.8561 191.455 52.6801 189.791 52.6801C187.551 52.6801 185.775 52.9841 184.463 53.5921C183.151 54.1681 182.495 55.0321 182.495 56.1841C182.495 57.0161 182.879 57.6881 183.647 58.2001C184.447 58.7121 185.871 59.0641 187.919 59.2561L195.071 59.9761C198.495 60.2961 201.231 60.8561 203.279 61.6561C205.327 62.4241 206.815 63.4961 207.743 64.8721C208.671 66.2481 209.135 67.9601 209.135 70.0081C209.135 72.5361 208.383 74.7441 206.879 76.6321C205.375 78.4881 203.263 79.9441 200.543 81.0001C197.823 82.0241 194.655 82.5361 191.039 82.5361C187.327 82.5361 184.047 82.0241 181.199 81.0001C178.383 79.9441 176.175 78.4721 174.575 76.5841C172.975 74.6641 172.127 72.4561 172.031 69.9601ZM223.38 61.5121H236.484C238.084 61.5121 239.332 61.1441 240.228 60.4081C241.124 59.6721 241.572 58.6481 241.572 57.3361C241.572 55.9921 241.124 54.9681 240.228 54.2641C239.332 53.5281 238.084 53.1601 236.484 53.1601H221.988L226.452 48.4081V81.7681H216.516V45.7681H237.876C240.628 45.7681 243.028 46.2641 245.076 47.2561C247.124 48.2161 248.724 49.5601 249.876 51.2881C251.028 52.9841 251.604 55.0001 251.604 57.3361C251.604 59.6081 251.028 61.6081 249.876 63.3361C248.724 65.0641 247.124 66.4081 245.076 67.3681C243.028 68.3281 240.628 68.8081 237.876 68.8081H223.38V61.5121ZM228.756 64.9201H239.94L252.852 81.7681H241.332L228.756 64.9201ZM268.966 65.6881C268.966 67.3201 269.27 68.7441 269.878 69.9601C270.518 71.1441 271.446 72.0561 272.662 72.6961C273.91 73.3361 275.43 73.6561 277.222 73.6561C279.046 73.6561 280.566 73.3361 281.782 72.6961C282.998 72.0561 283.91 71.1441 284.518 69.9601C285.126 68.7441 285.43 67.3201 285.43 65.6881V45.7681H295.414V66.1681C295.414 69.4641 294.646 72.3441 293.11 74.8081C291.606 77.2401 289.494 79.1441 286.774 80.5201C284.054 81.8641 280.87 82.5361 277.222 82.5361C273.606 82.5361 270.422 81.8641 267.67 80.5201C264.95 79.1441 262.822 77.2401 261.286 74.8081C259.782 72.3441 259.03 69.4641 259.03 66.1681V45.7681H268.966V65.6881ZM304.05 45.7681H313.986V81.7681H304.05V45.7681ZM332.37 45.7681H342.354V81.7681H332.37V45.7681ZM309.618 59.0641H336.498V67.8961H309.618V59.0641ZM382.265 60.1681V67.3681H355.913V60.1681H382.265ZM362.681 63.7681L360.329 78.2161L356.297 73.7041H383.849V81.7681H350.393L353.129 63.7681L350.393 45.7681H383.609V53.8321H356.297L360.329 49.3201L362.681 63.7681Z" fill="white"/>
</svg>
