<svg width="256" height="53" viewBox="0 0 256 53" fill="none" xmlns="http://www.w3.org/2000/svg">
<g clip-path="url(#clip0_1031_125)">
<path d="M9.79999 17.8002C9.29999 16.1002 13.2 10.6002 21.2 10.7002C28.4 10.5002 37.9 16.4002 38.6 27.5002C39.7 44.1002 25.9 49.9002 17.5 53.0002C20.5 51.7002 33.9 43.0002 33.9 30.3002C33.9 19.4002 20.2 9.70023 9.79999 17.8002Z" fill="white"/>
<path d="M20.2 21.6001C23 21.6001 24.9 24.0001 24.7 27.4001C24.5 29.7001 22.5 31.8001 19.5 31.8001C16.5 31.8001 13.8 29.5001 13.7 26.9001C13.7 23.9001 15.9 21.4001 20.2 21.6001Z" fill="white"/>
<path d="M20.5 0.299805C16.6 2.8998 4.00001 10.5998 3.90001 21.8998C2.90001 40.7998 21.9 42.8998 27.4 35.9998L27.7 36.1998C26.9 40.5998 21.4 42.3998 16.5 42.0998C7.90001 41.6998 0.700012 35.2998 0.100012 25.3998C-0.299988 18.3998 4.40001 11.0998 9.20001 7.09981C13.2 3.99981 17.8 1.69981 20.7 0.699806H20.9V0.299805H20.5Z" fill="white"/>
<path d="M52 1.89961C51.5 1.69961 51.1 1.59961 50.7 1.59961C50.3 1.59961 49.5 1.79961 49.3 2.59961C49.2 4.19961 52.8 3.69961 52.8 6.29961C52.8 7.99961 51.5 8.69961 49.9 8.59961C49.3 8.59961 48.9 8.49961 48.3 8.29961L48.4 7.19961C48.8 7.39961 49.4 7.59961 49.9 7.59961C50.5 7.59961 51.5 7.29961 51.5 6.39961C51.5 4.69961 48 5.29961 48 2.79961C48 1.39961 49.1 0.599609 50.5 0.599609C51 0.599609 51.6 0.699612 52.2 0.899612L52 1.89961ZM57.3 3.59961H55.9V6.59961C56 7.29961 56.5 7.69961 57 7.59961C57.3 7.59961 57.5 7.49961 57.7 7.39961V8.29961C57.5 8.39961 57.1 8.49961 56.8 8.49961C55.7 8.49961 55 7.99961 55 6.89961V3.59961H53.8V2.79961H55V1.49961L56 1.09961V2.69961H57.5C57.5 2.69961 57.5 3.59961 57.3 3.59961ZM60.4 1.49961H59.3V0.399612H60.4V1.49961ZM59.3 2.69961H60.3V8.49961H59.3V2.69961ZM63.2 3.59961H61.9V2.69961H63.2V2.29961C63.2 0.899606 63.5 0.0996094 65 0.0996094C65.2 0.0996094 65.5 0.0996078 65.7 0.199608V1.09961C65.6 0.999609 65.4 0.999611 65.2 0.999611C64.3 0.999611 64.3 1.59961 64.3 2.39961V2.79961H65.7V3.69961H64.3V8.39961H63.2V3.59961ZM70.1 3.59961H68.7V6.59961C68.7 7.29961 69.2 7.59961 69.7 7.59961C70 7.59961 70.2 7.49961 70.4 7.39961V8.29961C70.2 8.39961 69.9 8.49961 69.5 8.49961C68.4 8.49961 67.7 7.99961 67.8 6.89961V3.59961H66.6V2.79961H67.8V1.49961L68.9 1.09961V2.69961H70.4L70.1 3.59961ZM76.9 8.49961H76V7.59961C75.7 8.19961 74.9 8.59961 74.1 8.59961C72.7 8.59961 72.1 7.69961 72.1 6.19961V2.79961H73.1V5.69961C73.1 6.99961 73.4 7.59961 74.3 7.69961C75.5 7.69961 76 6.79961 76 5.49961V2.79961H77L76.9 8.49961ZM79 2.69961H80V3.59961C80.3 2.99961 81.1 2.59961 81.9 2.59961C83.3 2.59961 84.1 3.49961 84.1 4.99961V8.49961H83.1V5.59961C83.1 4.29961 82.8 3.59961 81.9 3.59961C80.8 3.59961 80.2 4.39961 80.2 5.79961V8.49961H79.2V2.69961H79ZM91.3 8.19961C91.3 9.79961 90.5 10.8996 88.5 10.8996C87.8 10.8996 87.2 10.7996 86.3 10.4996L86.4 9.59961C87.2 9.89961 87.7 10.0996 88.5 9.99961C89.5 9.99961 90.2 9.39961 90.2 8.09961V7.59961C89.8 8.19961 89 8.49961 88.3 8.49961C86.7 8.49961 85.9 7.19961 85.9 5.69961C85.9 4.19961 86.7 2.49961 88.4 2.49961C89.4 2.49961 89.9 2.89961 90.2 3.49961V2.69961H91.3V8.19961ZM90.2 5.59961C90.2 4.49961 89.7 3.49961 88.6 3.49961C87.6 3.49961 87.1 4.59961 87.1 5.59961C87.1 6.59961 87.7 7.59961 88.6 7.59961C89.6 7.59961 90.2 6.69961 90.2 5.59961Z" fill="white"/>
<path d="M56.7 19.0998L54.3 31.9998H50.8L47.5 15.9998H50.3L52.5 28.0998L55 15.8998H58.7L61.3 28.0998L63.5 15.8998H66.3L63 31.8998H59.5L56.9 19.1998L56.7 19.0998ZM67.5 15.2998H70.5V18.0998H67.5V15.2998ZM67.5 20.2998H70.4V31.8998H67.5V20.2998ZM80 22.7998C79.3 22.5998 78.5 22.2998 77.5 22.3998C76.7 22.3998 76 22.6998 76 23.4998C76 25.2998 80.6 25.3998 80.6 28.6998C80.6 31.1998 78.5 32.1998 76 32.0998C74.9 32.0998 74 31.8998 73.1 31.6998L73.3 29.2998C74.1 29.6998 75 30.0998 76 30.0998C76.9 30.0998 77.8 29.6998 77.8 28.8998C77.8 26.9998 73.2 26.8998 73.1 23.6998C73.1 21.5998 75 20.0998 77.4 20.1998C78.7 20.1998 79.5 20.4998 80.2 20.5998L80 22.7998ZM89.4 22.8998C88.7 22.6998 87.9 22.3998 87 22.4998C86.2 22.4998 85.5 22.7998 85.5 23.6998C85.5 25.3998 90.2 25.5998 90.2 28.6998C90.2 31.1998 88.3 32.1998 85.7 32.1998C84.6 32.1998 83.7 32.0998 82.6 31.6998L82.7 29.2998C83.5 29.6998 84.4 30.0998 85.5 30.0998C86.2 30.0998 87.2 29.6998 87.2 28.8998C87.3 27.0998 82.7 26.9998 82.6 23.7998C82.6 21.6998 84.5 20.0998 86.8 20.1998C88.2 20.1998 88.9 20.4998 89.6 20.5998L89.4 22.8998ZM100.9 31.2998C100.3 31.6998 99 32.0998 97.3 32.0998C93.5 32.0998 92 29.4998 92 26.4998C92 23.1998 93.5 20.0998 96.6 20.1998C99.3 20.1998 101.2 21.7998 101.2 26.1998V26.7998H94.6C94.7 28.5998 95.3 29.9998 97.5 30.0998C99.1 30.1998 99.8 29.6998 100.6 29.2998L100.7 31.3998L100.9 31.2998ZM98.5 25.0998C98.5 23.1998 97.9 22.1998 96.8 22.0998C95.4 22.0998 94.7 23.5998 94.7 25.0998H98.5ZM103.4 21.9998C103.4 21.2998 103.4 20.6998 103.3 20.1998H106C106 20.6998 106.1 21.2998 106 21.8998C106.4 21.2998 107.3 20.0998 109.1 20.0998C111.7 20.1998 112.5 21.9998 112.5 24.4998V31.7998H109.7V24.9998C109.7 23.2998 109.3 22.5998 108.1 22.5998C106.9 22.5998 106.3 23.7998 106.3 25.0998V31.7998H103.4V21.9998ZM119.6 27.2998H114.9V25.1998H119.6L119.7 20.4998H121.7V25.1998H126.4V27.2998H121.7V32.0998H119.6V27.2998ZM129 15.8998H131.9V22.6998L136.3 15.8998H139.7L134.4 23.4998L140 31.7998H136.5L131.8 24.5998H131.7V31.7998H128.9L129 15.8998ZM145.4 20.1998C147.8 20.1998 150.4 21.4998 150.4 26.1998C150.4 30.8998 148 32.0998 145.4 32.0998C142.9 32.0998 140.3 31.0998 140.3 26.1998C140.3 21.5998 142.7 20.1998 145.4 20.1998ZM145.4 30.0998C147.1 30.0998 147.5 27.9998 147.5 26.0998C147.5 24.2998 147.2 22.0998 145.4 22.0998C143.7 22.0998 143.2 24.2998 143.2 26.0998C143.3 28.0998 143.7 30.0998 145.4 30.0998ZM152.6 22.1998C152.6 21.2998 152.6 20.6998 152.5 20.2998H155.4L155.5 21.9998C155.9 21.1998 156.8 20.0998 158.4 20.0998C160.3 20.0998 161 21.2998 161.4 21.8998C162 21.0998 162.8 20.1998 164.5 20.1998C167 20.1998 167.8 21.9998 167.8 24.5998V31.8998H165V24.4998C165 23.1998 164.5 22.3998 163.5 22.3998C162.4 22.3998 161.8 23.5998 161.8 24.6998V31.7998H158.9V24.4998C158.9 23.1998 158.3 22.4998 157.4 22.4998C156.5 22.4998 155.7 23.6998 155.7 24.7998V31.7998H152.7V22.1998H152.6ZM170.3 22.2998C170.3 21.4998 170.3 20.6998 170.2 20.2998H172.9L173 21.9998C173.5 21.1998 174.2 20.0998 176 20.0998C178.8 20.0998 180.1 22.5998 180.1 26.1998C180.1 29.4998 179 31.8998 176.4 31.8998C174.7 31.9998 173.8 30.8998 173.4 30.2998V36.9998H170.5L170.3 22.2998ZM175.1 30.0998C176.7 30.1998 177.2 28.4998 177.2 26.2998C177.2 23.7998 176.8 22.1998 175.2 22.1998C173.6 22.1998 173.2 24.0998 173.2 26.1998C173.3 28.4998 173.8 30.0998 175.1 30.0998ZM190.9 31.3998C190.4 31.6998 189.1 32.0998 187.5 32.0998C183.7 32.0998 182.2 29.4998 182.2 26.4998C182.2 23.1998 183.8 20.0998 186.9 20.1998C189.5 20.1998 191.5 21.7998 191.5 26.1998V26.7998H184.9C184.9 28.5998 185.6 29.6998 187.8 30.0998C189.3 30.0998 190.2 29.5998 190.7 29.2998L190.9 31.3998ZM188.9 25.1998C188.9 23.2998 188.3 22.0998 187 22.0998C185.7 22.0998 184.9 23.6998 185 25.1998H188.9ZM194.9 18.0998L197.7 16.9998V20.1998H199.9V22.2998H197.7V28.1998C197.7 29.4998 198.3 29.9998 198.9 29.9998C199.4 29.9998 199.7 29.7998 200 29.6998V31.7998C199.5 32.0998 198.9 32.1998 198.1 32.1998C196 32.1998 194.9 31.2998 194.9 28.6998V22.3998H193.1V20.2998H195L194.9 18.0998ZM210.3 31.3998C209.8 31.6998 208.5 32.1998 206.9 32.1998C203.1 32.1998 201.5 29.5998 201.5 26.4998C201.5 23.1998 203.1 20.0998 206.1 20.0998C208.7 20.0998 210.8 21.5998 210.8 26.0998V26.7998H204.4C204.4 28.6998 205 29.6998 207.2 30.0998C208.9 30.0998 209.6 29.6998 210.2 29.2998V31.3998H210.3ZM208.3 25.0998C208.2 23.1998 207.5 22.0998 206.4 22.0998C204.9 22.0998 204.4 23.6998 204.4 25.0998H208.3ZM213.1 22.1998C213.1 21.4998 213.1 20.7998 213 20.2998H215.7C215.7 20.7998 215.8 21.4998 215.7 21.9998C216.1 21.2998 216.9 20.0998 218.7 20.0998C221.3 20.0998 222.1 21.9998 222.1 24.4998V31.7998H219.3V24.9998C219.3 23.2998 218.9 22.5998 217.8 22.5998C216.4 22.5998 215.9 23.7998 215.9 25.1998V31.7998H213.1V22.1998ZM224.2 29.5998L229 22.4998H225V20.2998H232.3V22.5998L227.9 29.6998H232.4V31.8998H225V29.6998L224.2 29.5998ZM242.9 31.3998C242.3 31.6998 241.1 32.1998 239.4 32.1998C235.6 32.1998 234.1 29.5998 234.1 26.4998C234.2 23.1998 235.7 20.0998 238.8 20.0998C241.4 20.0998 243.5 21.5998 243.5 26.0998V26.7998H236.9C236.9 28.6998 237.5 29.6998 239.7 30.0998C241.3 30.0998 242 29.6998 242.8 29.2998L242.9 31.3998ZM240.8 25.0998C240.8 23.1998 240.2 22.0998 239.1 22.0998C237.7 22.0998 237.1 23.6998 237.1 25.0998H240.8ZM245.5 22.1998C245.5 21.4998 245.5 20.7998 245.4 20.2998H248.1L248.3 21.9998C248.6 21.2998 249.5 20.0998 251.1 20.0998C253.8 20.0998 254.5 21.9998 254.5 24.4998V31.7998H251.8V24.9998C251.8 23.2998 251.4 22.5998 250.4 22.5998C249 22.5998 248.4 23.7998 248.4 25.1998V31.7998H245.5V22.1998Z" fill="white"/>
</g>
<defs>
<clipPath id="clip0_1031_125">
<rect width="255.6" height="53" fill="white"/>
</clipPath>
</defs>
</svg>
